<?xml version="1.0" encoding="utf-8"?>
<!-- Generator: Adobe Illustrator 18.0.0, SVG Export Plug-In . SVG Version: 6.00 Build 0)  -->
<!DOCTYPE svg PUBLIC "-//W3C//DTD SVG 1.1//EN" "http://www.w3.org/Graphics/SVG/1.1/DTD/svg11.dtd">
<svg version="1.1" xmlns="http://www.w3.org/2000/svg" xmlns:xlink="http://www.w3.org/1999/xlink" x="0px" y="0px"
	 viewBox="0 0 1096 780" enable-background="new 0 0 1096 780" xml:space="preserve">
<g id="_x31_">
	<rect x="0" y="-0.2" fill="#9FDDF9" width="1096" height="780.2"/>
	<path fill="#4EC9F5" d="M0,780v-88.7c0,0,269.3-113.9,538.8-113.9S1096,691.3,1096,691.3V780H0z"/>
</g>
<g id="_x32_">
	<g>
		<path fill="#FFFFFF" d="M781.5,146.3c-21.6-35.8-59.9-57.7-102.2-57.7c-0.8,0-1.5,0-2.3,0c-8.9-18.4-22.2-34.2-39.1-46.1
			c-20.4-14.5-44.5-22.1-69.7-22.1c-23.2,0-45.7,6.6-65.1,19c-15,9.6-27.6,22.3-37,37.2c-11.5-3.6-23.5-5.4-35.7-5.4
			c-33.9,0-65.5,14-88.1,38.8c-4.9-0.9-9.9-1.3-14.9-1.3c-45.9,0-83.2,37.3-83.2,83.2s37.3,83.2,83.2,83.2c5.8,0,11.5-0.6,17.1-1.8
			c6.3,6.6,13.3,12.3,20.8,17.2c-0.3,1.9-0.7,3.7-1.2,5.6l4.9,1.2c0.3-1.3,0.6-2.6,0.9-3.9c18.1,10.7,38.9,16.5,60.6,16.5
			c11.5,0,23-1.7,34-4.9c-0.1,1-0.1,1.9-0.2,2.9l5,0.4c0.1-1.7,0.2-3.3,0.3-4.9c0.8-0.3,1.6-0.6,2.4-0.8
			c17.5,27.7,48.2,44.9,81.6,44.9c27.3,0,52.9-11.4,71.1-31.1l3,0.1c0-0.3,0-0.5,0-0.8c16,7.7,33.6,11.7,51.6,11.7
			c20.9,0,41.4-5.5,59.4-15.8c14.7-8.4,27.5-20,37.4-33.7c0.3,0,0.6,0,0.9,0c36.3,0,65.8-29.5,65.8-65.8
			C842.8,177.2,815.7,148.7,781.5,146.3z M777,262.9c-2.9,0-5.7-0.3-8.4-0.7c-18.3,30.1-51.4,50.2-89.2,50.2
			c-21.2,0-40.8-6.3-57.3-17.1c-14.6,22.4-39.8,37.2-68.5,37.2c-33.6,0-62.4-20.3-74.9-49.2c-14.4,7.5-30.8,11.8-48.2,11.8
			c-32.6,0-61.8-15-80.9-38.5c-6.9,2.4-14.4,3.7-22.1,3.7c-1.1,0-2.2,0-3.4-0.1c-0.4,0-0.7-0.1-1.1-0.1c-0.7,0-1.5-0.1-2.2-0.2
			c-0.4,0-0.9-0.1-1.3-0.2c-0.7-0.1-1.3-0.2-2-0.3c-0.5-0.1-0.9-0.1-1.4-0.2c-0.6-0.1-1.2-0.2-1.9-0.3c-0.5-0.1-0.9-0.2-1.4-0.3
			c-0.6-0.1-1.2-0.3-1.8-0.4c-0.5-0.1-0.9-0.2-1.4-0.4c-0.6-0.2-1.2-0.3-1.7-0.5c-0.5-0.1-0.9-0.3-1.4-0.4c-0.6-0.2-1.1-0.4-1.7-0.6
			c-0.5-0.2-0.9-0.3-1.4-0.5c-0.6-0.2-1.1-0.4-1.6-0.6c-0.4-0.2-0.9-0.4-1.3-0.5c-0.6-0.2-1.1-0.5-1.6-0.7c-0.4-0.2-0.8-0.4-1.3-0.6
			c-0.6-0.3-1.2-0.6-1.7-0.9c-0.6-0.3-1.1-0.6-1.6-0.9c-0.7-0.4-1.4-0.8-2.1-1.2c-0.5-0.3-0.9-0.6-1.3-0.8c-0.4-0.3-0.9-0.6-1.3-0.8
			c-0.5-0.3-0.9-0.6-1.4-1c-0.4-0.3-0.8-0.6-1.2-0.8c-0.5-0.3-0.9-0.7-1.4-1c-0.4-0.3-0.7-0.6-1.1-0.9c-0.5-0.4-0.9-0.7-1.4-1.1
			c-0.3-0.3-0.7-0.6-1-0.9c-0.4-0.4-0.9-0.8-1.3-1.2c-0.3-0.3-0.6-0.6-0.9-0.9c-0.4-0.4-0.9-0.9-1.3-1.3c-0.3-0.3-0.6-0.6-0.8-0.9
			c-0.4-0.5-0.9-0.9-1.3-1.4c-0.2-0.3-0.5-0.6-0.7-0.8c-0.4-0.5-0.9-1-1.3-1.6c-0.2-0.2-0.4-0.5-0.5-0.7c-0.5-0.6-0.9-1.2-1.4-1.8
			c-0.1-0.1-0.1-0.2-0.2-0.2c-2.2-3-4.2-6.3-5.9-9.6c-0.1-0.2-0.2-0.3-0.2-0.5c-0.4-0.7-0.7-1.4-1-2.2c-0.1-0.2-0.2-0.5-0.3-0.7
			c-0.3-0.7-0.6-1.4-0.9-2.1c-0.1-0.3-0.2-0.5-0.3-0.8c-0.3-0.7-0.5-1.4-0.8-2.2c-0.1-0.3-0.2-0.5-0.3-0.8c-0.2-0.7-0.5-1.5-0.7-2.2
			c-0.1-0.3-0.2-0.5-0.2-0.8c-0.2-0.8-0.4-1.5-0.6-2.3c-0.1-0.2-0.1-0.5-0.2-0.7c-0.2-0.8-0.4-1.6-0.5-2.4c0-0.2-0.1-0.4-0.1-0.5
			c-0.2-0.9-0.3-1.8-0.4-2.6v0l0,0c-0.5-3.2-0.7-6.5-0.7-9.9c0-37.7,30.5-68.2,68.2-68.2c7.1,0,14,1.1,20.4,3.1
			c19.1-24.7,49-40.6,82.6-40.6c15.1,0,29.5,3.2,42.5,9c17.1-35.4,53.3-59.9,95.3-59.9c45.4,0,84.2,28.7,99.1,68.9
			c3.9-0.4,7.9-0.7,11.9-0.7c40.9,0,76.2,23.5,93.4,57.7c1.4-0.1,2.8-0.2,4.3-0.2c13.9,0,26.4,5.6,35.6,14.6v0l0,0
			c2.9,2.9,5.5,6.1,7.7,9.6c0,0,0,0,0,0c0.4,0.7,0.8,1.4,1.2,2.1c0,0,0,0,0,0c0.4,0.7,0.7,1.4,1.1,2.1c0,0,0,0.1,0.1,0.1
			c0.3,0.7,0.6,1.4,1,2.1c0,0.1,0.1,0.1,0.1,0.2c0.3,0.7,0.6,1.4,0.8,2c0,0.1,0.1,0.2,0.1,0.3c0.2,0.7,0.5,1.3,0.7,2
			c0,0.1,0.1,0.3,0.1,0.4c0.2,0.6,0.4,1.3,0.6,1.9c0,0.2,0.1,0.3,0.1,0.5c0.2,0.6,0.3,1.3,0.4,1.9c0,0.2,0.1,0.4,0.1,0.6
			c0.1,0.6,0.2,1.2,0.3,1.8c0,0.2,0.1,0.5,0.1,0.7c0.1,0.6,0.2,1.2,0.2,1.8c0,0.2,0.1,0.5,0.1,0.7c0.1,0.6,0.1,1.2,0.1,1.9
			c0,0.2,0,0.5,0.1,0.7c0,0.9,0.1,1.7,0.1,2.6C827.8,240.1,805.1,262.9,777,262.9z"/>
		<path fill="#FFFFFF" d="M183.5,527.1h-62.9c-14.9,0-27,12.1-27,27v123.4c0,14.9,12.1,27,27,27h62.9c14.9,0,27-12.1,27-27V554.1
			C210.5,539.2,198.3,527.1,183.5,527.1z M195.5,677.5c0,6.6-5.4,12-12,12h-62.9c-6.6,0-12-5.4-12-12V554.1c0-6.6,5.4-12,12-12h62.9
			c6.6,0,12,5.4,12,12V677.5z"/>
		<path fill="#FFFFFF" d="M998,506.2h-49.5c-0.1-0.2-0.1-0.4-0.2-0.7l-2,0.7h-53.9c-14.9,0-27,12.1-27,27v165.3
			c0,14.9,12.1,27,27,27H998c14.9,0,27-12.1,27-27V533.2C1025,518.3,1012.8,506.2,998,506.2z M1010,698.4c0,6.6-5.4,12-12,12H892.4
			c-6.6,0-12-5.4-12-12V533.2c0-6.6,5.4-12,12-12H998c6.6,0,12,5.4,12,12V698.4z"/>
		<path fill="#FFFFFF" d="M489.7,628.5v-95.1c0-8.3-6.7-15-15-15H330c-8.3,0-15,6.7-15,15v95.1l-14.1,57.9c-0.3,1.2-0.4,2.4-0.4,3.6
			v8.2c0,8.3,6.7,15,15,15h173.8c8.3,0,15-6.7,15-15v-8.2c0-1.2-0.1-2.4-0.4-3.6L489.7,628.5z M489.3,698.2H315.5v-8.2l14.5-59.6
			v-96.9h144.7v96.9l14.5,59.6V698.2z"/>
		<path fill="#FFFFFF" d="M777.6,518.8h-95.3c0.1-0.2,0.1-0.3,0.2-0.5l-4.7-1.6c-0.2,0.7-0.5,1.4-0.7,2.1H571.6c-8.3,0-15,6.7-15,15
			v138c0,8.3,6.7,15,15,15H616v11.1c0,8.3,6.7,15,15,15h87.2c8.3,0,15-6.7,15-15v-11.1h44.4c8.3,0,15-6.7,15-15v-138
			C792.6,525.5,785.9,518.8,777.6,518.8z M777.6,671.7h-97.1v11.8h37.7v14.3H631v-14.3h37.7v-11.8h-97.1v-138h206V671.7z"/>
		<path fill="#78D2F7" d="M317.5,259.5c-0.5-0.1-0.9-0.1-1.4-0.2C316.6,259.3,317.1,259.4,317.5,259.5z"/>
		<path fill="#78D2F7" d="M282.3,243c-0.4-0.4-0.9-0.8-1.3-1.2C281.4,242.2,281.8,242.6,282.3,243z"/>
		<path fill="#78D2F7" d="M284.6,245c-0.5-0.4-0.9-0.7-1.4-1.1C283.7,244.3,284.2,244.6,284.6,245z"/>
		<path fill="#78D2F7" d="M280,240.9c-0.4-0.4-0.9-0.9-1.3-1.3C279.1,240,279.6,240.5,280,240.9z"/>
		<path fill="#78D2F7" d="M287.1,246.9c-0.5-0.3-0.9-0.7-1.4-1C286.2,246.2,286.6,246.6,287.1,246.9z"/>
		<path fill="#78D2F7" d="M274,234.2c-0.5-0.6-0.9-1.2-1.4-1.8C273,233,273.5,233.6,274,234.2z"/>
		<path fill="#78D2F7" d="M277.9,238.7c-0.4-0.5-0.9-0.9-1.3-1.4C277,237.8,277.4,238.3,277.9,238.7z"/>
		<path fill="#78D2F7" d="M289.6,248.7c-0.5-0.3-0.9-0.6-1.4-1C288.7,248.1,289.2,248.4,289.6,248.7z"/>
		<path fill="#78D2F7" d="M272.4,232.2c-2.2-3-4.2-6.3-5.9-9.6C268.2,226,270.2,229.2,272.4,232.2z"/>
		<path fill="#78D2F7" d="M275.8,236.5c-0.4-0.5-0.9-1-1.3-1.6C274.9,235.4,275.4,236,275.8,236.5z"/>
		<path fill="#78D2F7" d="M305,256.3c-0.5-0.2-0.9-0.3-1.4-0.5C304,256,304.5,256.2,305,256.3z"/>
		<path fill="#78D2F7" d="M314.3,258.9c-0.5-0.1-0.9-0.2-1.4-0.3C313.4,258.7,313.8,258.8,314.3,258.9z"/>
		<path fill="#78D2F7" d="M292.3,250.4c-0.5-0.3-0.9-0.6-1.3-0.8C291.4,249.8,291.8,250.1,292.3,250.4z"/>
		<path fill="#78D2F7" d="M320.8,259.9c-0.4,0-0.9-0.1-1.3-0.2C320,259.8,320.4,259.8,320.8,259.9z"/>
		<path fill="#78D2F7" d="M308,257.3c-0.5-0.1-0.9-0.3-1.4-0.4C307.1,257.1,307.6,257.2,308,257.3z"/>
		<path fill="#78D2F7" d="M311.1,258.2c-0.5-0.1-0.9-0.2-1.4-0.4C310.2,258,310.7,258.1,311.1,258.2z"/>
		<path fill="#78D2F7" d="M299,253.9c-0.4-0.2-0.8-0.4-1.3-0.6C298.1,253.6,298.6,253.7,299,253.9z"/>
		<path fill="#78D2F7" d="M296,252.5c-0.6-0.3-1.1-0.6-1.6-0.9C294.9,251.9,295.5,252.2,296,252.5z"/>
		<path fill="#78D2F7" d="M266.3,222.1c-0.4-0.7-0.7-1.4-1-2.2C265.6,220.7,265.9,221.4,266.3,222.1z"/>
		<path fill="#78D2F7" d="M301.9,255.2c-0.4-0.2-0.9-0.4-1.3-0.5C301.1,254.9,301.5,255,301.9,255.2z"/>
		<path fill="#78D2F7" d="M826.8,201.7c0.1,0.6,0.2,1.2,0.3,1.8C827,202.9,826.9,202.3,826.8,201.7z"/>
		<path fill="#78D2F7" d="M823.8,192c0.3,0.7,0.6,1.4,0.8,2C824.3,193.4,824,192.7,823.8,192z"/>
		<path fill="#78D2F7" d="M826.2,199.2c0.2,0.6,0.3,1.3,0.4,1.9C826.5,200.5,826.4,199.8,826.2,199.2z"/>
		<path fill="#78D2F7" d="M824.7,194.4c0.2,0.7,0.5,1.3,0.7,2C825.2,195.7,824.9,195,824.7,194.4z"/>
		<path fill="#78D2F7" d="M324.1,260.1c-0.4,0-0.7-0.1-1.1-0.1C323.4,260,323.8,260.1,324.1,260.1z"/>
		<path fill="#78D2F7" d="M825.5,196.8c0.2,0.6,0.4,1.3,0.6,1.9C825.9,198.1,825.7,197.4,825.5,196.8z"/>
		<path fill="#78D2F7" d="M827.2,204.2c0.1,0.6,0.2,1.2,0.2,1.8C827.4,205.4,827.3,204.8,827.2,204.2z"/>
		<path fill="#78D2F7" d="M312.3,226.3c7.7,0,15.2-1.3,22.1-3.7c19.1,23.5,48.3,38.5,80.9,38.5c17.4,0,33.7-4.3,48.2-11.8
			c12.5,29,41.4,49.2,74.9,49.2c28.7,0,53.9-14.8,68.5-37.2c16.4,10.8,36.1,17.1,57.3,17.1c37.8,0,70.9-20.1,89.2-50.2
			c2.7,0.5,5.6,0.7,8.4,0.7c28.1,0,50.8-22.8,50.8-50.8c0-0.8,0-1.6-0.1-2.4c-9.2-9-21.7-14.6-35.6-14.6c-1.4,0-2.9,0.1-4.3,0.2
			c-17.1-34.2-52.5-57.7-93.4-57.7c-4,0-8,0.2-11.9,0.7c-14.9-40.2-53.7-68.9-99.1-68.9c-42,0-78.2,24.4-95.3,59.9
			c-13-5.8-27.4-9-42.5-9c-33.6,0-63.5,15.9-82.6,40.6c-6.4-2-13.3-3.1-20.4-3.1c-37.7,0-68.2,30.5-68.2,68.2c0,3.3,0.3,6.6,0.7,9.9
			C272.5,216.8,291.3,226.3,312.3,226.3z M353.9,136.6c29.7-47.6,86.2-39.8,86.2-39.8c-66.6,5.9-82.1,51.7-82.1,51.7
			c-55.9-29.7-89.2,33.3-89.2,33.3C289.1,115.8,353.9,136.6,353.9,136.6z"/>
		<path fill="#78D2F7" d="M827.8,212c0-0.9,0-1.8-0.1-2.6C827.8,210.3,827.8,211.1,827.8,212z"/>
		<path fill="#78D2F7" d="M827.6,206.8c0.1,0.6,0.1,1.2,0.1,1.9C827.7,208,827.6,207.4,827.6,206.8z"/>
		<path fill="#78D2F7" d="M261.8,210.4c-0.2-0.8-0.4-1.5-0.6-2.3C261.4,208.9,261.6,209.7,261.8,210.4z"/>
		<path fill="#78D2F7" d="M261.1,207.4c-0.2-0.8-0.4-1.6-0.5-2.4C260.7,205.8,260.9,206.6,261.1,207.4z"/>
		<path fill="#78D2F7" d="M822.7,189.8c0.3,0.7,0.6,1.4,1,2.1C823.4,191.1,823,190.5,822.7,189.8z"/>
		<path fill="#78D2F7" d="M262.7,213.4c-0.2-0.7-0.5-1.5-0.7-2.2C262.3,211.9,262.5,212.7,262.7,213.4z"/>
		<path fill="#78D2F7" d="M260.4,204.5c-0.2-0.9-0.3-1.8-0.4-2.6C260.1,202.7,260.3,203.6,260.4,204.5z"/>
		<path fill="#78D2F7" d="M263.8,216.4c-0.3-0.7-0.5-1.4-0.8-2.2C263.3,214.9,263.5,215.6,263.8,216.4z"/>
		<path fill="#78D2F7" d="M821.6,187.5c0.4,0.7,0.7,1.4,1.1,2.1C822.3,188.9,821.9,188.2,821.6,187.5z"/>
		<path fill="#78D2F7" d="M820.3,185.4c0.4,0.7,0.8,1.4,1.2,2.1C821.1,186.8,820.7,186.1,820.3,185.4z"/>
		<path fill="#78D2F7" d="M812.6,175.8c2.9,2.9,5.5,6.1,7.7,9.6C818.1,181.9,815.5,178.6,812.6,175.8z"/>
		<path fill="#78D2F7" d="M265,219.3c-0.3-0.7-0.6-1.4-0.9-2.1C264.4,217.8,264.7,218.6,265,219.3z"/>
		<path fill="#FFFFFF" d="M114.5,312.9c4,9.3,13.3,15.8,24.1,15.8c9.2,0,17.3-4.8,22-11.9c5.3,3.5,11.6,5.5,18.4,5.5
			c12.1,0,22.8-6.5,28.7-16.1c0.9,0.1,1.8,0.2,2.7,0.2c9,0,16.3-7.3,16.3-16.3c0-9-7.3-16.3-16.3-16.3c-0.5,0-0.9,0-1.4,0.1
			c-5.5-11-16.9-18.5-30-18.5c-1.3,0-2.6,0.1-3.8,0.2c-4.8-12.9-17.2-22.1-31.8-22.1c-13.5,0-25.1,7.9-30.6,19.2
			c-4.2-1.9-8.8-2.9-13.7-2.9c-10.8,0-20.4,5.1-26.5,13c-2.1-0.6-4.3-1-6.6-1c-12.1,0-21.9,9.8-21.9,21.9c0,12.1,9.8,21.9,21.9,21.9
			c2.5,0,4.9-0.4,7.1-1.2c6.1,7.5,15.5,12.4,26,12.4C104.6,316.7,109.9,315.3,114.5,312.9z"/>
		<path fill="#FFFFFF" d="M172.5,90.5c1.7,0,3.4-0.3,5-0.8c4.3,5.3,10.8,8.6,18.2,8.6c3.9,0,7.6-1,10.8-2.6c2.8,6.5,9.3,11,16.8,11
			c6.4,0,12.1-3.3,15.4-8.3c3.7,2.4,8.1,3.8,12.9,3.8c8.5,0,15.9-4.5,20-11.3c0.6,0.1,1.2,0.2,1.9,0.2c6.3,0,11.4-5.1,11.4-11.4
			c0-6.3-5.1-11.4-11.4-11.4c-0.3,0-0.6,0-1,0c-3.8-7.7-11.8-13-21-13c-0.9,0-1.8,0.1-2.7,0.2c-3.4-9-12-15.5-22.2-15.5
			c-9.4,0-17.5,5.5-21.4,13.4c-2.9-1.3-6.1-2-9.5-2c-7.5,0-14.2,3.6-18.5,9.1c-1.4-0.5-3-0.7-4.6-0.7c-8.5,0-15.3,6.9-15.3,15.3
			C157.2,83.6,164.1,90.5,172.5,90.5z"/>
		<path fill="#FFFFFF" d="M1041.5,101.6c-0.3,0-0.6,0-1,0c-3.8-7.7-11.8-13-21-13c-0.9,0-1.8,0.1-2.7,0.2c-3.4-9-12-15.5-22.2-15.5
			c-9.4,0-17.5,5.5-21.4,13.4c-2.9-1.3-6.1-2-9.5-2c-7.5,0-14.2,3.6-18.5,9.1c-1.4-0.5-3-0.7-4.6-0.7c-8.5,0-15.3,6.9-15.3,15.3
			c0,8.5,6.9,15.3,15.3,15.3c1.7,0,3.4-0.3,5-0.8c4.3,5.3,10.8,8.6,18.2,8.6c3.9,0,7.6-1,10.8-2.6c2.8,6.5,9.3,11,16.8,11
			c6.4,0,12.1-3.3,15.4-8.3c3.7,2.4,8.1,3.8,12.9,3.8c8.5,0,15.9-4.5,20-11.3c0.6,0.1,1.2,0.2,1.9,0.2c6.3,0,11.4-5.1,11.4-11.4
			C1052.9,106.7,1047.8,101.6,1041.5,101.6z"/>
		<path fill="#FFFFFF" d="M882.2,306.2c1.4,0,2.8-0.2,4.1-0.7c3.5,4.3,8.9,7.1,14.9,7.1c3.2,0,6.2-0.8,8.9-2.2
			c2.3,5.3,7.6,9.1,13.8,9.1c5.3,0,9.9-2.7,12.6-6.8c3,2,6.6,3.2,10.5,3.2c7,0,13-3.7,16.4-9.2c0.5,0.1,1,0.1,1.6,0.1
			c5.2,0,9.4-4.2,9.4-9.4s-4.2-9.4-9.4-9.4c-0.3,0-0.5,0-0.8,0c-3.1-6.3-9.7-10.6-17.2-10.6c-0.7,0-1.5,0-2.2,0.1
			c-2.7-7.4-9.9-12.7-18.2-12.7c-7.7,0-14.4,4.5-17.5,11c-2.4-1.1-5-1.7-7.8-1.7c-6.2,0-11.7,2.9-15.2,7.5c-1.2-0.4-2.4-0.6-3.8-0.6
			c-6.9,0-12.6,5.6-12.6,12.6C869.6,300.6,875.2,306.2,882.2,306.2z"/>
		<path fill="#51B4E6" d="M827.7,208.6c0-0.6-0.1-1.2-0.1-1.9c0-0.2-0.1-0.5-0.1-0.7c-0.1-0.6-0.1-1.2-0.2-1.8
			c0-0.2-0.1-0.5-0.1-0.7c-0.1-0.6-0.2-1.2-0.3-1.8c0-0.2-0.1-0.4-0.1-0.6c-0.1-0.6-0.3-1.3-0.4-1.9c0-0.2-0.1-0.3-0.1-0.5
			c-0.2-0.7-0.4-1.3-0.6-1.9c0-0.1-0.1-0.3-0.1-0.4c-0.2-0.7-0.4-1.3-0.7-2c0-0.1-0.1-0.2-0.1-0.3c-0.3-0.7-0.5-1.4-0.8-2
			c0-0.1-0.1-0.1-0.1-0.2c-0.3-0.7-0.6-1.4-1-2.1c0,0,0-0.1-0.1-0.1c-0.3-0.7-0.7-1.4-1.1-2.1c0,0,0,0,0,0c-0.4-0.7-0.8-1.4-1.2-2.1
			c0,0,0,0,0,0c-2.2-3.5-4.8-6.8-7.7-9.6l0,0v0c0,0.8,0.1,1.6,0.1,2.4c0,28.1-22.8,50.8-50.8,50.8c-2.9,0-5.7-0.3-8.4-0.7
			c-18.3,30.1-51.4,50.2-89.2,50.2c-21.2,0-40.8-6.3-57.3-17.1c-14.6,22.4-39.8,37.2-68.5,37.2c-33.6,0-62.4-20.3-74.9-49.2
			c-14.4,7.5-30.8,11.8-48.2,11.8c-32.6,0-61.8-15-80.9-38.5c-6.9,2.4-14.4,3.7-22.1,3.7c-21,0-39.8-9.5-52.3-24.5l0,0v0
			c0.1,0.9,0.3,1.8,0.4,2.6c0,0.2,0.1,0.4,0.1,0.5c0.2,0.8,0.3,1.6,0.5,2.4c0.1,0.2,0.1,0.5,0.2,0.7c0.2,0.8,0.4,1.5,0.6,2.3
			c0.1,0.3,0.1,0.5,0.2,0.8c0.2,0.7,0.4,1.5,0.7,2.2c0.1,0.3,0.2,0.5,0.3,0.8c0.2,0.7,0.5,1.4,0.8,2.2c0.1,0.3,0.2,0.5,0.3,0.8
			c0.3,0.7,0.6,1.4,0.9,2.1c0.1,0.2,0.2,0.5,0.3,0.7c0.3,0.7,0.7,1.4,1,2.2c0.1,0.2,0.2,0.3,0.2,0.5c1.7,3.4,3.7,6.6,5.9,9.6
			c0.1,0.1,0.1,0.2,0.2,0.2c0.4,0.6,0.9,1.2,1.4,1.8c0.2,0.2,0.4,0.5,0.5,0.7c0.4,0.5,0.9,1,1.3,1.6c0.2,0.3,0.5,0.6,0.7,0.8
			c0.4,0.5,0.9,0.9,1.3,1.4c0.3,0.3,0.6,0.6,0.8,0.9c0.4,0.4,0.9,0.9,1.3,1.3c0.3,0.3,0.6,0.6,0.9,0.9c0.4,0.4,0.9,0.8,1.3,1.2
			c0.3,0.3,0.7,0.6,1,0.9c0.4,0.4,0.9,0.8,1.4,1.1c0.4,0.3,0.7,0.6,1.1,0.9c0.5,0.4,0.9,0.7,1.4,1c0.4,0.3,0.8,0.6,1.2,0.8
			c0.5,0.3,0.9,0.6,1.4,1c0.4,0.3,0.9,0.6,1.3,0.8c0.4,0.3,0.9,0.6,1.3,0.8c0.7,0.4,1.4,0.8,2.1,1.2c0.5,0.3,1.1,0.6,1.6,0.9
			c0.6,0.3,1.1,0.6,1.7,0.9c0.4,0.2,0.8,0.4,1.3,0.6c0.5,0.3,1.1,0.5,1.6,0.7c0.4,0.2,0.9,0.4,1.3,0.5c0.5,0.2,1.1,0.4,1.6,0.6
			c0.4,0.2,0.9,0.3,1.4,0.5c0.6,0.2,1.1,0.4,1.7,0.6c0.5,0.1,0.9,0.3,1.4,0.4c0.6,0.2,1.1,0.3,1.7,0.5c0.5,0.1,0.9,0.2,1.4,0.4
			c0.6,0.1,1.2,0.3,1.8,0.4c0.5,0.1,0.9,0.2,1.4,0.3c0.6,0.1,1.2,0.2,1.9,0.3c0.5,0.1,0.9,0.2,1.4,0.2c0.7,0.1,1.3,0.2,2,0.3
			c0.4,0.1,0.9,0.1,1.3,0.2c0.7,0.1,1.5,0.1,2.2,0.2c0.4,0,0.7,0.1,1.1,0.1c1.1,0.1,2.2,0.1,3.4,0.1c7.7,0,15.2-1.3,22.1-3.7
			c19.1,23.5,48.3,38.5,80.9,38.5c17.4,0,33.7-4.3,48.2-11.8c12.5,29,41.4,49.2,74.9,49.2c28.7,0,53.9-14.8,68.5-37.2
			c16.4,10.8,36.1,17.1,57.3,17.1c37.8,0,70.9-20.1,89.2-50.2c2.7,0.5,5.6,0.7,8.4,0.7c28.1,0,50.8-22.8,50.8-50.8
			c0-0.9,0-1.8-0.1-2.6C827.8,209.1,827.7,208.9,827.7,208.6z"/>
		<path fill="#FFFFFF" d="M358.1,148.5c0,0,15.5-45.8,82.1-51.7c0,0-56.5-7.7-86.2,39.8c0,0-64.8-20.8-85,45.2
			C268.9,181.8,302.2,118.7,358.1,148.5z"/>
		<path fill="#F47B20" d="M183.5,542.1h-62.9c-6.6,0-12,5.4-12,12v123.4c0,6.6,5.4,12,12,12h62.9c6.6,0,12-5.4,12-12V554.1
			C195.5,547.5,190.1,542.1,183.5,542.1z M152,684.7c-3.7,0-6.6-3-6.6-6.6c0-3.7,3-6.6,6.6-6.6c3.7,0,6.6,3,6.6,6.6
			C158.6,681.8,155.7,684.7,152,684.7z M189.2,668.1h-74.3V563.5h74.3V668.1z"/>
		<path fill="#D1EEFC" d="M114.9,668.1h74.3V563.5h-74.3V668.1z M118.8,567.5h25.5l-21,4.5l-4.5,45V567.5z"/>
		<circle fill="#FFFFFF" cx="152" cy="678.1" r="6.6"/>
		<path fill="#4874A4" d="M998,521.2H892.4c-6.6,0-12,5.4-12,12v165.2c0,6.6,5.4,12,12,12H998c6.6,0,12-5.4,12-12V533.2
			C1010,526.6,1004.6,521.2,998,521.2z M945.2,706.2c-3.3,0-6-2.7-6-6s2.7-6,6-6c3.3,0,6,2.7,6,6S948.5,706.2,945.2,706.2z
			 M1005.1,691.3h-120V540.2h120V691.3z"/>
		<path fill="#D1EEFC" d="M885.2,691.3h120V540.2h-120V691.3z M888.3,544h37l-32.5,4.5l-4.5,46V544z"/>
		<circle fill="#FFFFFF" cx="945.2" cy="700.2" r="6"/>
		<path fill="#008A82" d="M474.7,533.4H330v96.9l-14.5,59.6h173.8l-14.5-59.6V533.4z M380.7,687l3.6-12.8h36L424,687H380.7z
			 M475.5,670.1H329.3l12.2-34.4h121.8L475.5,670.1z M336,539.7h132.8V624H336V539.7z"/>
		<polygon fill="#00423D" points="341.5,635.7 329.3,670.1 475.5,670.1 463.3,635.7 		"/>
		<polygon fill="#00423D" points="384.4,674.2 380.7,687 424,687 420.4,674.2 		"/>
		<path fill="#D1EEFC" d="M468.8,539.7H336V624h132.8V539.7z M343.3,547.5l-4,35.5v-39h43.5L343.3,547.5z"/>
		<rect x="315.5" y="689.9" fill="#00423D" width="173.8" height="8.2"/>
		<path fill="#EE2A7B" d="M571.6,671.7h97.1v11.8H631v14.3h87.2v-14.3h-37.7v-11.8h97.1v-138h-206V671.7z M580.1,542.7h189v120h-189
			V542.7z"/>
		<path fill="#D1EEFC" d="M769.1,542.7h-189v120h189V542.7z M590.3,550l-6,44.5v-48h51L590.3,550z"/>
		<polygon fill="#FFFFFF" points="144.3,567.5 118.8,567.5 118.8,617 123.3,572 		"/>
		<polygon fill="#FFFFFF" points="339.3,583 343.3,547.5 382.8,544 339.3,544 		"/>
		<polygon fill="#FFFFFF" points="584.3,594.5 590.3,550 635.3,546.5 584.3,546.5 		"/>
		<polygon fill="#FFFFFF" points="925.3,544 888.3,544 888.3,594.5 892.8,548.5 		"/>
		<path fill="#FFFFFF" d="M260.3,408.6l2.3,4.4c2.4-1.2,4.8-2.5,7.1-3.8l-2.4-4.4C265,406.2,262.7,407.4,260.3,408.6z"/>
		<path fill="#FFFFFF" d="M346.3,336.8c1.6,0.7,2.9,1.7,4,2.9c1.1-1.6,2.1-3.2,3.1-4.9l-4.3-2.6
			C348.2,333.7,347.3,335.3,346.3,336.8z"/>
		<path fill="#FFFFFF" d="M366.9,305.2l-4.8-1.5c-0.8,2.5-1.6,5-2.6,7.4l4.7,1.8C365.2,310.4,366.1,307.8,366.9,305.2z"/>
		<path fill="#FFFFFF" d="M160.3,458.8l3.8,3.3c1.6-1.9,3.5-3.8,5.4-5.5l-3.4-3.7C164,454.7,162,456.7,160.3,458.8z"/>
		<path fill="#FFFFFF" d="M274.2,401l2.5,4.3c2.3-1.4,4.7-2.8,6.9-4.1l-2.6-4.3C278.8,398.3,276.5,399.7,274.2,401z"/>
		<path fill="#FFFFFF" d="M310.1,382.7l-3.1-3.9c-2,1.6-4.1,3.2-6.3,4.8l3,4C305.9,386,308,384.3,310.1,382.7z"/>
		<path fill="#FFFFFF" d="M353,325.4l4.4,2.4c1.3-2.4,2.5-4.9,3.6-7.3l-4.5-2.1C355.5,320.7,354.3,323.1,353,325.4z"/>
		<path fill="#FFFFFF" d="M188.6,443.4c2.3-1.1,4.7-2.2,7.1-3.3l-1.9-4.6c-2.6,1.1-5,2.2-7.4,3.4L188.6,443.4z"/>
		<path fill="#FFFFFF" d="M322.4,372.1l-3.4-3.7c-1.9,1.8-3.9,3.5-5.9,5.3l3.3,3.8C318.4,375.7,320.4,373.9,322.4,372.1z"/>
		<path fill="#FFFFFF" d="M246,415.6l2.1,4.5c2.4-1.1,4.9-2.3,7.3-3.4l-2.2-4.5C250.9,413.3,248.4,414.5,246,415.6z"/>
		<path fill="#FFFFFF" d="M175.4,451.6c2-1.5,4.2-3,6.4-4.3l-2.6-4.3c-2.4,1.5-4.7,3-6.8,4.6L175.4,451.6z"/>
		<path fill="#FFFFFF" d="M152.5,481.9l-4.7-1.7c-0.2,0.6-0.4,1.2-0.6,1.9c1.8,0,3.4,0.5,4.9,1.2
			C152.2,482.8,152.4,482.3,152.5,481.9z"/>
		<path fill="#FFFFFF" d="M328.2,366.5c1.9-1.9,3.8-3.9,5.6-5.8l-3.7-3.4c-1.8,1.9-3.6,3.8-5.5,5.7L328.2,366.5z"/>
		<path fill="#FFFFFF" d="M155.3,465.4c-1.5,2.3-2.9,4.7-4.2,7.2l4.5,2.2c1.1-2.3,2.4-4.5,3.9-6.6L155.3,465.4z"/>
		<path fill="#FFFFFF" d="M204.5,431.6c-1.1,0.3-2.1,0.7-3.1,1l1.6,4.7c1-0.3,2-0.7,3-1c1.5-0.5,3-1,4.6-1.5l-1.6-4.7
			C207.5,430.6,206,431.1,204.5,431.6z"/>
		<path fill="#FFFFFF" d="M216.5,427.5l1.7,4.7c1.5-0.5,3-1.1,4.5-1.6c-0.9-1.4-1.4-3-1.6-4.7C219.6,426.4,218.1,427,216.5,427.5z"
			/>
		<path fill="#FFFFFF" d="M144.8,520.9l4.9-0.8c-0.4-2.6-0.7-5.2-0.9-7.7l-5,0.4C144,515.5,144.4,518.2,144.8,520.9z"/>
		<path fill="#FFFFFF" d="M287.7,392.7l2.7,4.2c2.3-1.5,4.5-3,6.7-4.5l-2.9-4.1C292.2,389.7,290,391.2,287.7,392.7z"/>
		<path fill="#FFFFFF" d="M468.6,316.4l-5-0.5c-0.3,2.6-0.6,5.2-1,7.9l5,0.7C468,321.7,468.3,319,468.6,316.4z"/>
		<path fill="#FFFFFF" d="M427.9,428.5l4.3,2.6c1.4-2.3,2.7-4.6,4-7l-4.4-2.4C430.5,424,429.2,426.3,427.9,428.5z"/>
		<path fill="#FFFFFF" d="M435.5,414.6l4.5,2.2c1.2-2.4,2.3-4.8,3.5-7.3l-4.6-2.1C437.8,409.9,436.6,412.3,435.5,414.6z"/>
		<path fill="#FFFFFF" d="M452.4,387c0.9-2.5,1.8-5.1,2.6-7.7l-4.8-1.5c-0.8,2.5-1.7,5.1-2.5,7.5L452.4,387z"/>
		<path fill="#FFFFFF" d="M442,400.2l4.6,1.9c1-2.4,2-5,3-7.5l-4.7-1.8C444,395.3,443,397.8,442,400.2z"/>
		<path fill="#FFFFFF" d="M391,506.4c0.6,2.7,1.5,5.4,2.6,8l4.6-1.9c-1-2.4-1.8-4.8-2.4-7.2L391,506.4z"/>
		<path fill="#FFFFFF" d="M402.9,469.1c1.4-2.1,2.9-4.2,4.6-6.2l-3.9-3.2c-1.8,2.2-3.5,4.4-4.9,6.7L402.9,469.1z"/>
		<path fill="#FFFFFF" d="M457.5,351.7c1.7,0.1,3.4,0.5,4.8,1.2c0.4-1.6,0.7-3.1,1.1-4.7l-4.9-1.1
			C458.2,348.7,457.9,350.2,457.5,351.7z"/>
		<path fill="#FFFFFF" d="M391.6,481.4l4.8,1.4c0.7-2.4,1.6-4.8,2.7-7.1l-4.5-2.1C393.4,476.2,392.4,478.8,391.6,481.4z"/>
		<path fill="#FFFFFF" d="M460.1,339.4l4.9,0.9c0.5-2.7,1-5.3,1.4-7.9l-4.9-0.8C461.1,334.1,460.6,336.8,460.1,339.4z"/>
		<path fill="#FFFFFF" d="M423.7,435.1c-0.5,0.7-1,1.5-1.5,2.2c1.3,1.3,2.3,2.9,2.8,4.7c0.9-1.3,1.9-2.7,2.8-4.1L423.7,435.1z"/>
		<path fill="#FFFFFF" d="M389.6,495c0,1,0,2,0.1,3l5-0.3c-0.1-0.9-0.1-1.8-0.1-2.7c0-1.6,0.1-3.2,0.3-4.8l-5-0.6
			C389.7,491.4,389.6,493.3,389.6,495z"/>
		<path fill="#FFFFFF" d="M632.8,355.1l-4.8,1.3c0.2,0.7,0.4,1.5,0.6,2.2c1.4-1,2.9-1.6,4.6-1.9
			C633.1,356.2,632.9,355.7,632.8,355.1z"/>
		<path fill="#FFFFFF" d="M639.2,386.8c1.1,2.4,2.2,4.9,3.4,7.3l4.5-2.2c-1.2-2.4-2.3-4.8-3.4-7.2L639.2,386.8z"/>
		<path fill="#FFFFFF" d="M646.2,401.4c1.2,2.3,2.5,4.7,3.8,7.1l4.4-2.4c-1.3-2.3-2.6-4.7-3.8-7L646.2,401.4z"/>
		<path fill="#FFFFFF" d="M688.9,486.3l-5-0.3c-0.2,2.5-0.4,5.1-0.8,7.8l5,0.7C688.5,491.7,688.8,489,688.9,486.3z"/>
		<path fill="#FFFFFF" d="M622.7,324.4c0.1,2.7,0.3,5.4,0.6,8.1l5-0.5c-0.3-2.6-0.5-5.3-0.6-7.8L622.7,324.4z"/>
		<path fill="#FFFFFF" d="M624.4,340.6c0.4,2.6,1,5.3,1.6,8l4.9-1.1c-0.6-2.6-1.1-5.2-1.5-7.7L624.4,340.6z"/>
		<path fill="#FFFFFF" d="M670.9,433.2c-1.5-2.2-2.9-4.5-4.3-6.7l-4.2,2.7c1.4,2.2,2.9,4.5,4.4,6.8L670.9,433.2z"/>
		<path fill="#FFFFFF" d="M680,509.2l4.8,1.3c0.7-2.6,1.4-5.3,1.9-7.9l-4.9-1C681.3,504.1,680.7,506.6,680,509.2z"/>
		<path fill="#FFFFFF" d="M654,415.5c1.3,2.3,2.7,4.6,4.1,6.9l4.3-2.6c-1.4-2.3-2.8-4.6-4.1-6.8L654,415.5z"/>
		<path fill="#FFFFFF" d="M675.4,439.9l-4.1,2.8c1.4,2,2.7,3.9,4,5.8c0.2,0.3,0.4,0.5,0.5,0.8l4.2-2.8c-0.2-0.3-0.4-0.6-0.6-0.9
			C678.1,443.7,676.7,441.8,675.4,439.9z"/>
		<path fill="#FFFFFF" d="M684,453.8l-4.6,2c0.8,1.9,1.5,3.8,2.2,5.9c1.5-0.7,3.1-1.1,4.9-1.2C685.7,458.2,684.9,456,684,453.8z"/>
		<path fill="#FFFFFF" d="M880.8,408.8l2.8-4.2c-1.1-0.7-2.2-1.4-3.3-2.1c-0.2,1.8-0.8,3.4-1.6,4.9
			C879.4,407.8,880.1,408.3,880.8,408.8z"/>
		<path fill="#FFFFFF" d="M828.4,395.9c2.6,0.4,5.3,0.7,8.1,0.9l0.5-5c-2.6-0.2-5.3-0.5-7.8-0.9L828.4,395.9z"/>
		<path fill="#FFFFFF" d="M892.9,418.5l3.4-3.6c-2-1.9-4.1-3.7-6.2-5.4l-3.1,3.9C889,415,891,416.7,892.9,418.5z"/>
		<path fill="#FFFFFF" d="M797,387.1c2.4,1.1,5,2.1,7.6,3.1l1.7-4.7c-2.5-0.9-4.9-1.9-7.2-2.9L797,387.1z"/>
		<path fill="#FFFFFF" d="M933.1,468c-1.2-2.4-2.4-4.9-3.6-7.2l-4.4,2.3c1.2,2.3,2.4,4.7,3.6,7.1L933.1,468z"/>
		<path fill="#FFFFFF" d="M917.3,449.3c1.4,2.2,2.7,4.5,4,6.8l4.4-2.5c-1.3-2.4-2.7-4.7-4.1-7L917.3,449.3z"/>
		<path fill="#FFFFFF" d="M903.6,430l3.9-3.2c-1.8-2.1-3.6-4.2-5.4-6.1l-3.7,3.4C900.2,425.9,901.9,427.9,903.6,430z"/>
		<path fill="#FFFFFF" d="M755.8,339.7l-4.5,2.2c1,2,2,3.9,3.1,5.8c1.3-1.1,2.8-1.9,4.4-2.3C757.8,343.5,756.8,341.6,755.8,339.7z"
			/>
		<path fill="#FFFFFF" d="M945.6,497.9c-0.9-2.5-1.9-5.1-2.8-7.6l-4.7,1.8c1,2.5,1.9,5,2.8,7.5L945.6,497.9z"/>
		<path fill="#FFFFFF" d="M908.4,436.2c1.5,2.1,3.1,4.2,4.5,6.5l4.2-2.8c-1.5-2.3-3.1-4.5-4.7-6.6L908.4,436.2z"/>
		<path fill="#FFFFFF" d="M812.4,392.6c2.6,0.7,5.2,1.3,7.9,1.9l1-4.9c-2.6-0.5-5.2-1.1-7.6-1.8L812.4,392.6z"/>
		<path fill="#FFFFFF" d="M844.8,392.4l-0.2,5c0.9,0,1.8,0.1,2.7,0.1c1.7,0,3.4,0.2,5.1,0.4l0.6-5c-1.8-0.2-3.7-0.4-5.6-0.4
			C846.5,392.5,845.6,392.4,844.8,392.4z"/>
		<path fill="#FFFFFF" d="M745,326.9c0.9,2.6,1.9,5.2,2.9,7.6l4.6-1.9c-1-2.3-1.9-4.8-2.8-7.3L745,326.9z"/>
		<path fill="#FFFFFF" d="M740.3,311.4c0.7,2.7,1.4,5.3,2.2,7.8l4.8-1.4c-0.7-2.5-1.5-5-2.1-7.6L740.3,311.4z"/>
		<path fill="#FFFFFF" d="M792.1,379.1c-2.3-1.3-4.5-2.6-6.6-4.1l-2.8,4.1c2.2,1.5,4.6,3,7,4.3L792.1,379.1z"/>
		<path fill="#FFFFFF" d="M776.2,374.2l3.2-3.8c-2-1.6-3.9-3.4-5.7-5.2l-3.5,3.5C772,370.5,774.1,372.4,776.2,374.2z"/>
		<path fill="#F47B20" d="M158.6,493.7c0-4.6-2.7-8.6-6.5-10.4c-1.5-0.7-3.1-1.1-4.9-1.2c-0.1,0-0.1,0-0.2,0
			c-6.4,0-11.6,5.2-11.6,11.6c0,6.4,5.2,11.6,11.6,11.6C153.4,505.3,158.6,500.1,158.6,493.7z"/>
		<path fill="#F47B20" d="M232.7,413c-6.4,0-11.6,5.2-11.6,11.6c0,0.4,0,0.8,0.1,1.2c0.2,1.7,0.8,3.3,1.6,4.7c2,3.4,5.7,5.6,10,5.6
			c6.4,0,11.6-5.2,11.6-11.6C244.3,418.2,239.1,413,232.7,413z"/>
		<path fill="#F47B20" d="M346.3,336.8c-1.4-0.6-3-1-4.6-1c-6.4,0-11.6,5.2-11.6,11.6c0,6.4,5.2,11.6,11.6,11.6
			c6.4,0,11.6-5.2,11.6-11.6c0-3-1.1-5.7-3-7.7C349.2,338.5,347.8,337.4,346.3,336.8z"/>
		<path fill="#008A82" d="M457.1,351.7c-6.4,0-11.6,5.2-11.6,11.6c0,6.4,5.2,11.6,11.6,11.6c6.4,0,11.6-5.2,11.6-11.6
			c0-4.5-2.6-8.5-6.4-10.4c-1.5-0.7-3.1-1.2-4.8-1.2C457.4,351.7,457.3,351.7,457.1,351.7z"/>
		<path fill="#008A82" d="M414,433.9c-6.4,0-11.6,5.2-11.6,11.6c0,6.4,5.2,11.6,11.6,11.6c6.4,0,11.6-5.2,11.6-11.6
			c0-1.2-0.2-2.4-0.6-3.6c-0.6-1.8-1.6-3.4-2.8-4.7C420.1,435.2,417.2,433.9,414,433.9z"/>
		<path fill="#EE2A7B" d="M635.3,356.6c-0.7,0-1.4,0.1-2,0.2c-1.7,0.3-3.3,1-4.6,1.9c-3,2.1-5,5.6-5,9.5c0,6.4,5.2,11.6,11.6,11.6
			s11.6-5.2,11.6-11.6C646.9,361.8,641.7,356.6,635.3,356.6z"/>
		<path fill="#EE2A7B" d="M698.2,472.2c0-6.4-5.2-11.6-11.6-11.6c-0.1,0-0.1,0-0.2,0c-1.7,0-3.4,0.4-4.9,1.2
			c-3.9,1.9-6.6,5.9-6.6,10.5c0,6.4,5.2,11.6,11.6,11.6C693,483.8,698.2,478.6,698.2,472.2z"/>
		<path fill="#4874A4" d="M761.9,344.9c-1.1,0-2.1,0.2-3.1,0.4c-1.7,0.5-3.2,1.3-4.4,2.3c-2.5,2.1-4.1,5.3-4.1,8.9
			c0,6.4,5.2,11.6,11.6,11.6c6.4,0,11.6-5.2,11.6-11.6C773.6,350.2,768.4,344.9,761.9,344.9z"/>
		<path fill="#4874A4" d="M878.7,407.4c0.9-1.4,1.5-3.1,1.6-4.9c0-0.4,0.1-0.8,0.1-1.2c0-6.4-5.2-11.6-11.6-11.6
			c-6.4,0-11.6,5.2-11.6,11.6c0,6.4,5.2,11.6,11.6,11.6C872.9,413,876.6,410.8,878.7,407.4z"/>
		<circle fill="#4874A4" cx="933.5" cy="481.1" r="11.6"/>
	</g>
</g>
<g id="Designed_by_Vecteezy">
</g>
</svg>
