<?xml version="1.0" encoding="utf-8"?>
<!-- Generator: Adobe Illustrator 18.0.0, SVG Export Plug-In . SVG Version: 6.00 Build 0)  -->
<!DOCTYPE svg PUBLIC "-//W3C//DTD SVG 1.1//EN" "http://www.w3.org/Graphics/SVG/1.1/DTD/svg11.dtd">
<svg version="1.1" id="Layer_1" xmlns="http://www.w3.org/2000/svg" xmlns:xlink="http://www.w3.org/1999/xlink" x="0px" y="0px"
	 viewBox="0 0 1024 580" enable-background="new 0 0 1024 580" xml:space="preserve">
<rect y="-1" fill="#CCCCCC" width="1028" height="581"/>
<g>
	<path fill="#FF7BAC" d="M527.9,171c1.5-2.2,6.6-7.2-0.2-14.6c-14.7-7.1-18.6-16.1-18.6-16.1s0.8-3.1,2.1-5.8
		c1.1,2.6,3.3,4.9,5.4,5.1c2.3,0.3,2-1.9,2.8-2.1c0.4-0.1,1.4,0.8,1.8,0.6c0.8-0.4,0.5-0.9,0.3-1.6c0.3-0.2,0.7,0.3,1.3,0.1
		c0.7-0.2,0.3-1.5,1.5-2c0.7-0.3,1.8,0.7,2.4,0.3c0.7-0.4,0.7-1.7,0.9-3c0.2-1.5,0.6-3,1.3-3.7c0.3-0.3,1-0.2,1.3-0.4
		c1.6-1.1,3.4-4.5,3.6-6.4c5.4-0.3,1.9-14-6.1-17.9c-5.7-2.8-12.3-0.3-15.6,1.8c-4,2.5-8,10.7-12.6,18c-4.1,6.6-8.9,12.4-10.6,16.4
		c0,0-4.7,11-13.2,11.9c0,0,6.8,1.3,10.9-0.6c0,0-19.2,15-17.9,22.8c1,4.2,26.8,18.5,27.3,20.2c1.6,3.9-4.9,24.5-3.9,31.2
		c1.3,8,7.6,9.9,7.6,9.9l1.5,4.5h27.1c0,0-2.2-15.9,2.5-22.2c3.9-5.1,13.7-6.7,14.1-21.3C545.4,180,529.6,174.7,527.9,171z
		 M483.1,171c2.8-2.2,7.4-5.6,7.4-5.6l6.9,22.1C497.5,187.6,483.1,173.3,483.1,171z"/>
	<path fill="#FF7BAC" d="M614.9,171c1.5-2.2,6.6-7.2-0.2-14.6c-14.7-7.1-18.6-16.1-18.6-16.1s0.8-3.1,2.1-5.8
		c1.1,2.6,3.3,4.9,5.4,5.1c2.3,0.3,2-1.9,2.8-2.1c0.4-0.1,1.4,0.8,1.8,0.6c0.8-0.4,0.5-0.9,0.3-1.6c0.3-0.2,0.7,0.3,1.3,0.1
		c0.7-0.2,0.3-1.5,1.5-2c0.7-0.3,1.8,0.7,2.4,0.3c0.7-0.4,0.7-1.7,0.9-3c0.2-1.5,0.6-3,1.3-3.7c0.3-0.3,1-0.2,1.3-0.4
		c1.6-1.1,3.4-4.5,3.6-6.4c5.4-0.3,1.9-14-6.1-17.9c-5.7-2.8-12.3-0.3-15.6,1.8c-4,2.5-8,10.7-12.6,18c-4.1,6.6-8.9,12.4-10.6,16.4
		c0,0-4.7,11-13.2,11.9c0,0,6.8,1.3,10.9-0.6c0,0-19.2,15-17.9,22.8c1,4.2,26.8,18.5,27.3,20.2c1.6,3.9-4.9,24.5-3.9,31.2
		c1.3,8,7.6,9.9,7.6,9.9l1.5,4.5h27.1c0,0-2.2-15.9,2.5-22.2c3.9-5.1,13.7-6.7,14.1-21.3C632.5,180,616.7,174.7,614.9,171z
		 M570.2,171c2.8-2.2,7.4-5.6,7.4-5.6l6.9,22.1C584.6,187.6,570.2,173.3,570.2,171z"/>
	<path fill="#FF7BAC" d="M442,171c2.6,0,9-8.3,2.1-15.7c-14.7-7.1-18.6-16.1-18.6-16.1s0.8-3.1,2.1-5.8c1.1,2.6,3.3,4.9,5.4,5.1
		c2.3,0.3,2-1.9,2.8-2.1c0.4-0.1,1.4,0.8,1.8,0.6c0.8-0.4,0.5-0.9,0.3-1.6c0.3-0.2,0.7,0.3,1.3,0.1c0.7-0.2,0.3-1.5,1.5-2
		c0.7-0.3,1.8,0.7,2.4,0.3c0.7-0.4,0.7-1.7,0.9-3c0.2-1.5,0.6-3,1.3-3.7c0.3-0.3,1-0.2,1.3-0.4c1.6-1.1,3.4-4.5,3.6-6.4
		c5.4-0.3,1.9-14-6.1-17.9c-5.7-2.8-12.3-0.3-15.6,1.8c-4,2.5-8,10.7-12.6,18c-4.1,6.6-8.9,12.4-10.6,16.4c0,0-4.7,11-13.2,11.9
		c0,0,6.8,1.3,10.9-0.6c0,0-19.2,15-17.9,22.8c1,4.2,26.8,18.5,27.3,20.2c1,2.4-1.4,9.2-3.3,15.6c-0.5,1.6,0.8,2.6,0.5,4.1
		c-0.5,2.2-1.5,5.9-1.5,7.4c0.3,11.2,8,14,8,14l1.5,4.5h27.1c0,0-1.4-17.5,0.4-22.3c3.9-5.1,10.1-12.7,10.1-24
		C455.3,179.5,444.7,174,442,171z M399.6,169.9c2.8-2.2,7.4-5.6,7.4-5.6s10.8,15.6,12,25.1C415.3,187.2,399.6,172.1,399.6,169.9z"/>
	<path fill="#FF7BAC" d="M361.9,171c2.6,0,9-8.3,2.1-15.7c-14.7-7.1-18.6-16.1-18.6-16.1s0.8-3.1,2.1-5.8c1.1,2.6,3.3,4.9,5.4,5.1
		c2.3,0.3,2-1.9,2.8-2.1c0.4-0.1,1.4,0.8,1.8,0.6c0.8-0.4,0.5-0.9,0.3-1.6c0.3-0.2,0.7,0.3,1.3,0.1c0.7-0.2,0.3-1.5,1.5-2
		c0.7-0.3,1.8,0.7,2.4,0.3c0.7-0.4,0.7-1.7,0.9-3c0.2-1.5,0.6-3,1.3-3.7c0.3-0.3,1-0.2,1.3-0.4c1.6-1.1,3.4-4.5,3.6-6.4
		c5.4-0.3,1.9-14-6.1-17.9c-5.7-2.8-12.3-0.3-15.6,1.8c-4,2.5-8,10.7-12.6,18c-4.1,6.6-8.9,12.4-10.6,16.4c0,0-4.7,11-13.2,11.9
		c0,0,6.8,1.3,10.9-0.6c0,0-19.2,15-17.9,22.8c1,4.2,26.8,18.5,27.3,20.2c1,2.4-1.4,9.2-3.3,15.6c-0.5,1.6,0.8,2.6,0.5,4.1
		c-0.5,2.2-1.5,5.9-1.5,7.4c0.3,11.2,8,14,8,14l1.5,4.5h24.1c0,0-1.4-17.1,0.4-21.9c3.9-5.1,5.8-8.8,5.4-20.1
		C367.3,190.8,362.6,176.6,361.9,171z M319.5,169.9c2.8-2.2,7.4-5.6,7.4-5.6s10.8,15.6,12,25.1C335.3,187.2,319.5,172.1,319.5,169.9
		z"/>
</g>
<g>
	<g>
		<path fill="#8C4F0B" d="M130.3,88.8c7.1-14.6-7.5-28.3-7.5-28.3s-0.8-1.3-14.7,25.6c-14,27-32.9,30.8-43.9,44.2
			c-8.2,10.1-6.7,22.8-3,38.1c-8.2-4-13.2-17.5-13.2-17.5l-8.2,13.4c-1.2-2.1-2.2-4.1-3-6.1c2.9,7.9,6.8,13.8,6.8,13.8
			s12.2,4.4,18.3,8.4c6.1,4,14.9,14,14.9,14s-12.4-21,11.8-37.7s31.6-46.5,31.6-46.5s1,16.1,10.1,23.5c0,0-3.3-5.3-4.6-11.3
			C123.3,112.7,122.9,104.1,130.3,88.8z"/>
	</g>
	<path fill="#5B2F04" d="M125.2,81.4c0,0,1.5,1.9,3.1,2.2c0,0-2.4,0.1-4.4-0.5L125.2,81.4z"/>
	<g>
		<path fill="#FFDC85" d="M59.9,162.5c-1,1-2,1.9-2.9,2.9c1.3,1.3,2.7,2.4,4.3,3.1C60.8,166.4,60.3,164.4,59.9,162.5z"/>
		<path fill="#FFFFFF" d="M156.8,276.2c-7.6-6.1-14.4-32.5-13.6-48c0.4-6.6,6.5-31.8,6.7-38.3c0.5-14-10-25.5-10-25.5
			s2.5-4.3,1.4-7.1c-2.3-6-11.2-10.5-14-8.4c5.2-12.8-1.4-15.6-6.5-17.6c-3.1-5.8-3.4-8.8-6.6-15.7c-4.5-7.7-13.8-0.1-18.6-3.4
			c0.5-6.3,4.2-10.9,7.1-13.5c3.1,3.1,7.6,6.2,9.3,4.4c2.2-2.2,4-3.4,4.7-3.8c0.1-0.4-0.2-0.8-0.2-1.1c-0.1-0.9-1.9-3.8-1.9-3.8
			s2.6,1,5.3,0.2c1.7-0.4,2.6,0.3,2.8,1.1c-0.4-1.1-0.7-2.9-0.3-2.9c1.2-0.2,4.1-0.4,3.6-2c-0.5-1.6-1.7-5.7-1.1-9
			c0.4-2.2,4-5.3,6.3-7.1c-2.3-8.2-8.6-14.2-8.6-14.2s-0.8-1.3-14.7,25.6c-1.8,3.4-3.7,6.5-5.6,9.3c-0.3,0.4-0.6,0.8-0.9,1.2
			c-0.1,0.1-0.2,0.2-0.3,0.4c-12.9,17.5-27.9,22-37.2,33.4c-7.1,8.7-6.9,19.5-4.3,32.1c3.1-3,6.1-5.9,7.3-7.3
			c3.9,0.7,27,28.7,27,28.7s-3.8,18-13.5,24.9c0-1.7,0.5-1.3,0-4.2c-0.5-2.9-27.3-31.2-29.6-32.1c-0.4-0.7,2.5-3.7,5.8-7
			c-5.6-5.5-8.9-14.4-8.9-14.4l-8.2,13.4c-0.1-0.2-0.3-0.5-0.4-0.7c-1.5,3.1-2.7,6-3.6,8.3c3,12.1,37.8,33.8,37.8,36.5
			c0,2.7-8.2,8.4-8.8,10.7c-0.5,2.3,0.4,5.4,0.8,10c0.3,3.7-0.2,7.3,0.2,7.5c0.9,0.4,2-1,2.4-3.9c1.2,1.6,3.4-3.6,3.4-3.6
			c-4.8,14.5,0.2,29.2-1,38.3c-1.5,11.5-9.4,37.1-8.2,43.4c1.1,6.3,29.3,1.1,29.3,1.1l6,16.2l-10,17.5h19.5h2.2h19.9
			c0,0,26.2-22.3,26.9-29c0.7-6.6-4.7-16.5-10.8-26.1C145.4,290.5,156.3,281.6,156.8,276.2z M113.2,338.8c1.7-3.3,3.9-7.5,6.2-12.6
			c1.2-6.2,0.3-19.2-0.9-30.1c5.5,7.9,12,16.9,14.5,19.3C129,320.7,119.5,331.6,113.2,338.8z"/>
	</g>
	<path fill="#5B2F04" d="M121.2,79.3c0,0,1.6,2.7,4,2.5c0,0-2.6,0.5-4-0.6c0,0,0.5,1.6,1.1,1.9c0,0-2.7-1.9-3.1-2.8v1.8
		c0,0-1.7-1.7-2.1-3.2V81c0,0-2.2-2.7-2.1-3.9C115,77.1,117.9,79.4,121.2,79.3z"/>
	<path fill="#5B2F04" d="M113.9,68.6c0,0,6.2,0.6,7.9,1.5c0,0,2.6,3.4,3.4,4.7c0,0,1.4,0.5,2.2-0.3c0,0-2.7-4.3-4.7-5.9
		C122.7,68.6,112.4,67.7,113.9,68.6z"/>
	<path fill="#F94725" d="M114.8,94.3c0,0,2.6,1,5.3,0.2c2.7-0.7,3.4,1.7,2.6,2.5c-0.8,0.9-2.6,0.4-2.6,0.4s0.5,3-1.6,3
		c-1.6,0-1.7-1.5-1.8-2.4C116.5,97.2,114.8,94.3,114.8,94.3z"/>
	<path fill="#FF7993" d="M143.3,228.2c0.4-6.6,5.7-25.2,6.7-38.3c1.1-13.9-10-25.5-10-25.5s2.5-4.3,1.4-7.1c-2.3-6-11.2-10.5-14-8.4
		c5.2-12.8-1.4-15.6-6.5-17.6c-8.4-1.1-14.7-13.8-16.9-18.8c-1.5,0.3-3.1,0.6-4.5,0.6c1.8,4.4,4.5,13.2-2.1,16.6
		c-9.9,5.1-17.3-4.1-21-10c-2.1,1.6-4.2,3.1-6.1,4.7c0,0.2,0,0.3,0,0.3c9.6,33.6,0.5,33.2,0.5,33.2l0,0c7.7,7.1,23.3,26.1,23.3,26.1
		s-3.8,18-13.5,24.9c-8.5,8.5-9.7,16-10.6,21.4c-2.5,14.2,1.7,28.3,0.6,37.3c-1.5,11.5-9.4,37.1-8.2,43.4c6.3-8.1,25-18.3,52.4-19.4
		c27.4-1.1,42-15.2,42-15.2C149.3,270.1,142.4,243.8,143.3,228.2z"/>
	<path fill="#A3600F" d="M120.8,44.2c0,0-9.9-16.1-27.5-3.3C72,56.5,75.1,86.5,68.4,95.3c-8,10.5-48.8,33.9-28.5,69l8.2-13.4
		c0,0,5,13.5,13.2,17.5c-3.7-15.3-5.3-28,3-38.1c11-13.4,29.9-17.3,43.9-44.2c14-27,14.7-25.6,14.7-25.6s14.6,13.7,7.5,28.3
		c-7.5,15.3-7.1,23.9-4.4,33.7c0.8-11.6,1.7-23.5,9.6-32.7c7.8-9.2,14.3-36.3-4.6-40.4L120.8,44.2z"/>
	<path fill="#DD617E" d="M145.4,290.5l-4.3-4.8c0,0,9.5-4.1,15.8-9.5C156.8,276.2,156.1,281.6,145.4,290.5z"/>
	<path fill="#DD617E" d="M87,296.2l4.7,15.8c0,0-27.4,5.8-29.3-1.1C62.4,310.9,67.7,302.6,87,296.2z"/>
	<path fill="#FF7993" d="M130.9,49.4c0,0-14.9-1.3-29.3,16.1c0,0,0.8-10.5,19.1-21.2C120.8,44.2,125.2,44.8,130.9,49.4z"/>
	<path fill="#DD617E" d="M91,180c0,0,17-28,35.1-27.7l6.2,6c0,0-21,6.6-38.1,25.5L91,180z"/>
	<path fill="#FFFFFF" d="M118.3,163.6c1.7,1.1,4.1-0.3,6.1-2.5c-0.7,2.3-6.1,10.2-4.7,11.1c1.5,1,8.5-9.4,9.3-10.6
		c-0.9,1.3-8.8,13.4-7.2,14.8c1.7,1.4,10.5-11.8,10.5-11.8s-6.8,10.3-4.7,11.2c1.8,0.7,6.6-7.5,7.9-9.8c-0.9,1.6-3.3,6.2-2.2,7.1
		c1.3,1.1,6.6-8.8,6.6-8.8s2.5-4.3,1.4-7.1c-2.3-6-11.2-10.5-14-8.4c0,0-3.4,2.2-4.6,6.4C121.1,161.3,117.2,162.9,118.3,163.6z"/>
</g>
<g>
	<polygon fill="#FF7993" points="378.9,300.6 232.8,300.6 258,278.5 232.8,254.5 378.9,254.5 404.4,278.5 	"/>
	<polygon fill="#1989C3" points="534.2,300.6 388.1,300.6 413.3,278.5 388.1,254.5 534.2,254.5 559.7,278.5 	"/>
	<polygon fill="#FF7993" points="689.5,300.6 543.4,300.6 568.6,278.5 543.4,254.5 689.5,254.5 715,278.5 	"/>
	<text transform="matrix(1 0 0 1 265.9341 284.2717)" fill="#FFFFFF" font-family="'Nunito'" font-size="18">CONCEPTION</text>
	<text transform="matrix(1 0 0 1 451.8842 284.2717)" fill="#FFFFFF" font-family="'Nunito'" font-size="18">BABY</text>
	<text transform="matrix(1 0 0 1 597.1069 284.2717)" fill="#FFFFFF" font-family="'Nunito'" font-size="18">BIRTH</text>
</g>
<g>
	<text transform="matrix(1 0 0 1 805.3864 195.0679)" fill="#1989C3" font-family="'Nunito'" font-size="14">71%</text>
	<text transform="matrix(1 0 0 1 842.7482 195.0679)" fill="#1989C3" font-family="'Nunito'" font-size="14">71%</text>
	<text transform="matrix(1 0 0 1 880.1104 195.0679)" fill="#1989C3" font-family="'Nunito'" font-size="14">71%</text>
	<text transform="matrix(1 0 0 1 917.4728 195.0679)" fill="#1989C3" font-family="'Nunito'" font-size="14">71%</text>
	<rect x="808" y="106.6" fill="#EF7290" width="25" height="70"/>
	<rect x="844.4" y="76.6" fill="#D35F80" width="25" height="100"/>
	<rect x="880.7" y="93.6" fill="#1989C3" width="25" height="83"/>
	<rect x="917.1" y="61.6" fill="#00E2CD" width="25" height="115"/>
</g>
<g>
	<g>
		<g>
			<rect x="782" y="318.3" fill="#FF7993" width="196.8" height="1.2"/>
		</g>
		<g>
			<rect x="967.8" y="221.6" fill="#FF7993" width="1.2" height="101.6"/>
		</g>
		<g>
			<g>
				<rect x="971.2" y="248.6" fill="#FF7993" width="5" height="1.2"/>
			</g>
			<g>
				<path fill="#FF7993" d="M961.2,249.9h-10v-1.2h10V249.9z M941.1,249.9h-10v-1.2h10V249.9z M921,249.9h-10v-1.2h10V249.9z
					 M901,249.9h-10v-1.2h10V249.9z M880.9,249.9h-10v-1.2h10V249.9z M860.9,249.9h-10v-1.2h10V249.9z"/>
			</g>
			<g>
				<rect x="835.8" y="248.6" fill="#FF7993" width="5" height="1.2"/>
			</g>
		</g>
		<g>
			<g>
				<rect x="971.2" y="270.6" fill="#FF7993" width="5" height="1.2"/>
			</g>
			<g>
				<path fill="#FF7993" d="M961.2,271.8h-10v-1.2h10V271.8z M941.1,271.8h-10v-1.2h10V271.8z M921,271.8h-10v-1.2h10V271.8z
					 M901,271.8h-10v-1.2h10V271.8z M880.9,271.8h-10v-1.2h10V271.8z M860.9,271.8h-10v-1.2h10V271.8z"/>
			</g>
			<g>
				<rect x="835.8" y="270.6" fill="#FF7993" width="5" height="1.2"/>
			</g>
		</g>
		<g>
			<g>
				<rect x="971.2" y="292.5" fill="#FF7993" width="5" height="1.2"/>
			</g>
			<g>
				<path fill="#FF7993" d="M961.2,293.8h-10v-1.2h10V293.8z M941.1,293.8h-10v-1.2h10V293.8z M921,293.8h-10v-1.2h10V293.8z
					 M901,293.8h-10v-1.2h10V293.8z M880.9,293.8h-10v-1.2h10V293.8z M860.9,293.8h-10v-1.2h10V293.8z"/>
			</g>
			<g>
				<rect x="835.8" y="292.5" fill="#FF7993" width="5" height="1.2"/>
			</g>
		</g>
	</g>
	<path fill="#2EB9EF" d="M787.7,318.7c34.2,0,17.7-59.6,46-59.6c27.3,0,16.5,59.6,44.2,59.6H787.7z"/>
	<path fill="#FF7993" d="M876,318.7c34.2,0,17.7-47.5,46-47.5c27.3,0,16.5,47.5,44.2,47.5H876z"/>
	<path fill="#00E2CD" d="M830.7,318.7c34.2,0,17.7-80.2,46-80.2c27.3,0,16.5,80.2,44.2,80.2H830.7z"/>
</g>
</svg>
