<?xml version="1.0" encoding="utf-8"?>
<!-- Generator: Adobe Illustrator 18.0.0, SVG Export Plug-In . SVG Version: 6.00 Build 0)  -->
<!DOCTYPE svg PUBLIC "-//W3C//DTD SVG 1.1//EN" "http://www.w3.org/Graphics/SVG/1.1/DTD/svg11.dtd">
<svg version="1.1" id="Layer_1" xmlns="http://www.w3.org/2000/svg" xmlns:xlink="http://www.w3.org/1999/xlink" x="0px" y="0px"
	 viewBox="0 0 1028 580" enable-background="new 0 0 1028 580" xml:space="preserve">
<rect x="-31" y="-100.2" fill="#9EDCF8" width="1096" height="780.2"/>
<path fill="#4EC8F4" d="M-32,559.8v-88.7c0,0,269.3-113.9,538.8-113.9S1064,471.2,1064,471.2v88.7H-32z"/>
<g>
	<path fill="#FFFFFF" d="M631.9,118.5c-10.9-18-30.2-29.1-51.5-29.1c-0.4,0-0.8,0-1.2,0c-4.5-9.3-11.2-17.2-19.7-23.2
		C549.3,58.9,537.1,55,524.5,55c-11.7,0-23,3.3-32.8,9.6c-7.5,4.8-13.9,11.3-18.7,18.8c-5.8-1.8-11.8-2.7-18-2.7
		c-17.1,0-33,7.1-44.4,19.6c-2.5-0.4-5-0.7-7.5-0.7c-23.1,0-41.9,18.8-41.9,41.9s18.8,41.9,41.9,41.9c2.9,0,5.8-0.3,8.6-0.9
		c3.2,3.3,6.7,6.2,10.5,8.7c-0.2,0.9-0.4,1.9-0.6,2.8l2.5,0.6c0.2-0.6,0.3-1.3,0.4-2c9.1,5.4,19.6,8.3,30.5,8.3
		c5.8,0,11.6-0.8,17.1-2.5c0,0.5-0.1,1-0.1,1.5l2.5,0.2c0.1-0.8,0.1-1.7,0.1-2.5c0.4-0.1,0.8-0.3,1.2-0.4
		c8.8,13.9,24.3,22.6,41.1,22.6c13.8,0,26.7-5.8,35.8-15.7l1.5,0.1c0-0.1,0-0.3,0-0.4c8.1,3.9,16.9,5.9,26,5.9
		c10.5,0,20.9-2.8,29.9-8c7.4-4.3,13.8-10.1,18.8-17c0.1,0,0.3,0,0.4,0c18.3,0,33.2-14.9,33.2-33.2
		C662.8,134,649.2,119.6,631.9,118.5z M629.6,177.2c-1.4,0-2.9-0.1-4.3-0.4c-9.2,15.2-25.9,25.3-45,25.3c-10.7,0-20.6-3.2-28.9-8.6
		c-7.3,11.3-20,18.7-34.5,18.7c-16.9,0-31.4-10.2-37.8-24.8c-7.3,3.8-15.5,5.9-24.3,5.9c-16.5,0-31.1-7.6-40.8-19.4
		c-3.5,1.2-7.2,1.9-11.1,1.9c-0.6,0-1.1,0-1.7,0c-0.2,0-0.4,0-0.6,0c-0.4,0-0.7,0-1.1-0.1c-0.2,0-0.4-0.1-0.7-0.1
		c-0.3,0-0.7-0.1-1-0.1c-0.2,0-0.5-0.1-0.7-0.1c-0.3-0.1-0.6-0.1-0.9-0.2c-0.2,0-0.5-0.1-0.7-0.1c-0.3-0.1-0.6-0.1-0.9-0.2
		c-0.2-0.1-0.5-0.1-0.7-0.2c-0.3-0.1-0.6-0.2-0.9-0.2c-0.2-0.1-0.5-0.1-0.7-0.2c-0.3-0.1-0.6-0.2-0.8-0.3c-0.2-0.1-0.5-0.2-0.7-0.2
		c-0.3-0.1-0.6-0.2-0.8-0.3c-0.2-0.1-0.4-0.2-0.7-0.3c-0.3-0.1-0.6-0.2-0.8-0.4c-0.2-0.1-0.4-0.2-0.6-0.3c-0.3-0.1-0.6-0.3-0.9-0.4
		c-0.3-0.1-0.6-0.3-0.8-0.4c-0.4-0.2-0.7-0.4-1.1-0.6c-0.2-0.1-0.4-0.3-0.7-0.4c-0.2-0.1-0.4-0.3-0.7-0.4c-0.2-0.2-0.5-0.3-0.7-0.5
		c-0.2-0.1-0.4-0.3-0.6-0.4c-0.2-0.2-0.5-0.3-0.7-0.5c-0.2-0.1-0.4-0.3-0.5-0.4c-0.2-0.2-0.5-0.4-0.7-0.6c-0.2-0.1-0.3-0.3-0.5-0.4
		c-0.2-0.2-0.5-0.4-0.7-0.6c-0.2-0.1-0.3-0.3-0.5-0.4c-0.2-0.2-0.4-0.4-0.7-0.7c-0.1-0.1-0.3-0.3-0.4-0.4c-0.2-0.2-0.4-0.5-0.7-0.7
		c-0.1-0.1-0.2-0.3-0.4-0.4c-0.2-0.3-0.4-0.5-0.7-0.8c-0.1-0.1-0.2-0.2-0.3-0.3c-0.2-0.3-0.5-0.6-0.7-0.9c0,0-0.1-0.1-0.1-0.1
		c-1.1-1.5-2.1-3.2-3-4.9c0-0.1-0.1-0.2-0.1-0.2c-0.2-0.4-0.3-0.7-0.5-1.1c-0.1-0.1-0.1-0.2-0.2-0.3c-0.2-0.4-0.3-0.7-0.4-1.1
		c-0.1-0.1-0.1-0.3-0.2-0.4c-0.1-0.4-0.3-0.7-0.4-1.1c0-0.1-0.1-0.3-0.1-0.4c-0.1-0.4-0.2-0.7-0.3-1.1c0-0.1-0.1-0.3-0.1-0.4
		c-0.1-0.4-0.2-0.8-0.3-1.1c0-0.1-0.1-0.2-0.1-0.4c-0.1-0.4-0.2-0.8-0.3-1.2c0-0.1,0-0.2,0-0.3c-0.1-0.4-0.2-0.9-0.2-1.3v0l0,0
		c-0.2-1.6-0.4-3.3-0.4-5c0-19,15.4-34.4,34.4-34.4c3.6,0,7,0.6,10.3,1.6c9.6-12.4,24.7-20.4,41.6-20.4c7.6,0,14.9,1.6,21.4,4.6
		c8.6-17.9,26.9-30.2,48-30.2c22.9,0,42.4,14.5,49.9,34.7c2-0.2,4-0.3,6-0.3c20.6,0,38.4,11.8,47.1,29.1c0.7-0.1,1.4-0.1,2.2-0.1
		c7,0,13.3,2.8,17.9,7.3v0l0,0c1.5,1.5,2.8,3.1,3.9,4.9c0,0,0,0,0,0c0.2,0.3,0.4,0.7,0.6,1.1c0,0,0,0,0,0c0.2,0.3,0.4,0.7,0.5,1.1
		c0,0,0,0,0,0.1c0.2,0.3,0.3,0.7,0.5,1c0,0,0,0.1,0,0.1c0.1,0.3,0.3,0.7,0.4,1c0,0,0,0.1,0.1,0.1c0.1,0.3,0.2,0.7,0.3,1
		c0,0.1,0,0.1,0.1,0.2c0.1,0.3,0.2,0.7,0.3,1c0,0.1,0,0.2,0.1,0.3c0.1,0.3,0.2,0.6,0.2,1c0,0.1,0,0.2,0.1,0.3
		c0.1,0.3,0.1,0.6,0.2,0.9c0,0.1,0,0.2,0.1,0.3c0,0.3,0.1,0.6,0.1,0.9c0,0.1,0,0.2,0,0.4c0,0.3,0.1,0.6,0.1,0.9c0,0.1,0,0.2,0,0.4
		c0,0.4,0,0.9,0,1.3C655.3,165.7,643.8,177.2,629.6,177.2z"/>
	<path fill="#FFFFFF" d="M330.5,310.4h-31.7c-7.5,0-13.6,6.1-13.6,13.6v62.2c0,7.5,6.1,13.6,13.6,13.6h31.7
		c7.5,0,13.6-6.1,13.6-13.6V324C344.1,316.5,338,310.4,330.5,310.4z M336.5,386.1c0,3.3-2.7,6-6,6h-31.7c-3.3,0-6-2.7-6-6V324
		c0-3.3,2.7-6,6-6h31.7c3.3,0,6,2.7,6,6V386.1z"/>
	<path fill="#FFFFFF" d="M741,299.8h-24.9c0-0.1-0.1-0.2-0.1-0.3l-1,0.3h-27.2c-7.5,0-13.6,6.1-13.6,13.6v83.3
		c0,7.5,6.1,13.6,13.6,13.6H741c7.5,0,13.6-6.1,13.6-13.6v-83.3C754.6,305.9,748.5,299.8,741,299.8z M747,396.7c0,3.3-2.7,6-6,6
		h-53.2c-3.3,0-6-2.7-6-6v-83.3c0-3.3,2.7-6,6-6H741c3.3,0,6,2.7,6,6V396.7z"/>
	<path fill="#FFFFFF" d="M484.9,361.5v-47.9c0-4.2-3.4-7.6-7.6-7.6h-72.9c-4.2,0-7.6,3.4-7.6,7.6v47.9l-7.1,29.2
		c-0.1,0.6-0.2,1.2-0.2,1.8v4.2c0,4.2,3.4,7.6,7.6,7.6h87.6c4.2,0,7.6-3.4,7.6-7.6v-4.2c0-0.6-0.1-1.2-0.2-1.8L484.9,361.5z
		 M484.6,396.6H397v-4.2l7.3-30v-48.9h72.9v48.9l7.3,30V396.6z"/>
	<path fill="#FFFFFF" d="M629.9,306.2h-48c0-0.1,0.1-0.2,0.1-0.2l-2.4-0.8c-0.1,0.4-0.2,0.7-0.4,1h-53.1c-4.2,0-7.6,3.4-7.6,7.6
		v69.5c0,4.2,3.4,7.6,7.6,7.6h22.4v5.6c0,4.2,3.4,7.6,7.6,7.6H600c4.2,0,7.6-3.4,7.6-7.6v-5.6h22.4c4.2,0,7.6-3.4,7.6-7.6v-69.5
		C637.5,309.5,634.1,306.2,629.9,306.2z M629.9,383.3H581v5.9h19v7.2H556v-7.2h19v-5.9h-48.9v-69.5h103.8V383.3z"/>
	<path fill="#77D1F6" d="M398.1,175.5c-0.2,0-0.5-0.1-0.7-0.1C397.6,175.4,397.8,175.4,398.1,175.5z"/>
	<path fill="#77D1F6" d="M380.3,167.2c-0.2-0.2-0.5-0.4-0.7-0.6C379.8,166.8,380.1,167,380.3,167.2z"/>
	<path fill="#77D1F6" d="M381.5,168.2c-0.2-0.2-0.5-0.4-0.7-0.6C381,167.8,381.3,168,381.5,168.2z"/>
	<path fill="#77D1F6" d="M379.2,166.1c-0.2-0.2-0.4-0.4-0.7-0.7C378.7,165.7,378.9,165.9,379.2,166.1z"/>
	<path fill="#77D1F6" d="M382.7,169.1c-0.2-0.2-0.5-0.3-0.7-0.5C382.3,168.8,382.5,169,382.7,169.1z"/>
	<path fill="#77D1F6" d="M376.1,162.8c-0.2-0.3-0.5-0.6-0.7-0.9C375.6,162.2,375.9,162.5,376.1,162.8z"/>
	<path fill="#77D1F6" d="M378.1,165c-0.2-0.2-0.4-0.5-0.7-0.7C377.6,164.5,377.8,164.8,378.1,165z"/>
	<path fill="#77D1F6" d="M384,170c-0.2-0.2-0.5-0.3-0.7-0.5C383.5,169.7,383.8,169.9,384,170z"/>
	<path fill="#77D1F6" d="M375.3,161.7c-1.1-1.5-2.1-3.2-3-4.9C373.2,158.6,374.2,160.2,375.3,161.7z"/>
	<path fill="#77D1F6" d="M377.1,163.9c-0.2-0.3-0.4-0.5-0.7-0.8C376.6,163.4,376.8,163.6,377.1,163.9z"/>
	<path fill="#77D1F6" d="M391.7,173.9c-0.2-0.1-0.5-0.2-0.7-0.2C391.3,173.7,391.5,173.8,391.7,173.9z"/>
	<path fill="#77D1F6" d="M396.4,175.2c-0.2,0-0.5-0.1-0.7-0.1C396,175.1,396.2,175.1,396.4,175.2z"/>
	<path fill="#77D1F6" d="M385.3,170.9c-0.2-0.1-0.4-0.3-0.7-0.4C384.9,170.6,385.1,170.8,385.3,170.9z"/>
	<path fill="#77D1F6" d="M399.7,175.7c-0.2,0-0.4-0.1-0.7-0.1C399.3,175.6,399.5,175.6,399.7,175.7z"/>
	<path fill="#77D1F6" d="M393.3,174.4c-0.2-0.1-0.5-0.1-0.7-0.2C392.8,174.3,393,174.3,393.3,174.4z"/>
	<path fill="#77D1F6" d="M394.8,174.8c-0.2-0.1-0.5-0.1-0.7-0.2C394.4,174.7,394.6,174.8,394.8,174.8z"/>
	<path fill="#77D1F6" d="M388.7,172.7c-0.2-0.1-0.4-0.2-0.6-0.3C388.3,172.5,388.5,172.6,388.7,172.7z"/>
	<path fill="#77D1F6" d="M387.2,171.9c-0.3-0.1-0.6-0.3-0.8-0.4C386.7,171.7,386.9,171.8,387.2,171.9z"/>
	<path fill="#77D1F6" d="M372.2,156.6c-0.2-0.4-0.3-0.7-0.5-1.1C371.9,155.9,372.1,156.3,372.2,156.6z"/>
	<path fill="#77D1F6" d="M390.2,173.3c-0.2-0.1-0.4-0.2-0.7-0.3C389.8,173.2,390,173.2,390.2,173.3z"/>
	<path fill="#77D1F6" d="M654.7,146.4c0.1,0.3,0.1,0.6,0.2,0.9C654.8,147,654.8,146.7,654.7,146.4z"/>
	<path fill="#77D1F6" d="M653.2,141.5c0.1,0.3,0.3,0.7,0.4,1C653.5,142.2,653.3,141.8,653.2,141.5z"/>
	<path fill="#77D1F6" d="M654.4,145.1c0.1,0.3,0.2,0.6,0.2,1C654.6,145.7,654.5,145.4,654.4,145.1z"/>
	<path fill="#77D1F6" d="M653.7,142.7c0.1,0.3,0.2,0.7,0.3,1C653.9,143.3,653.8,143,653.7,142.7z"/>
	<path fill="#77D1F6" d="M401.4,175.8c-0.2,0-0.4,0-0.6,0C401,175.8,401.2,175.8,401.4,175.8z"/>
	<path fill="#77D1F6" d="M654.1,143.9c0.1,0.3,0.2,0.7,0.3,1C654.3,144.5,654.2,144.2,654.1,143.9z"/>
	<path fill="#77D1F6" d="M655,147.6c0,0.3,0.1,0.6,0.1,0.9C655,148.2,655,147.9,655,147.6z"/>
	<path fill="#77D1F6" d="M395.5,158.7c3.9,0,7.6-0.7,11.1-1.9c9.6,11.8,24.3,19.4,40.8,19.4c8.8,0,17-2.1,24.3-5.9
		c6.3,14.6,20.8,24.8,37.8,24.8c14.5,0,27.2-7.5,34.5-18.7c8.3,5.5,18.2,8.6,28.9,8.6c19.1,0,35.7-10.1,45-25.3
		c1.4,0.2,2.8,0.4,4.3,0.4c14.2,0,25.6-11.5,25.6-25.6c0-0.4,0-0.8,0-1.2c-4.6-4.5-11-7.3-17.9-7.3c-0.7,0-1.4,0-2.2,0.1
		c-8.6-17.2-26.5-29.1-47.1-29.1c-2,0-4,0.1-6,0.3c-7.5-20.3-27-34.7-49.9-34.7c-21.1,0-39.4,12.3-48,30.2
		c-6.5-2.9-13.8-4.6-21.4-4.6c-16.9,0-32,8-41.6,20.4c-3.3-1-6.7-1.6-10.3-1.6c-19,0-34.4,15.4-34.4,34.4c0,1.7,0.1,3.3,0.4,5
		C375.4,154,384.9,158.7,395.5,158.7z M416.4,113.5c15-24,43.5-20.1,43.5-20.1c-33.6,3-41.4,26.1-41.4,26.1
		c-28.2-15-45,16.8-45,16.8C383.7,103,416.4,113.5,416.4,113.5z"/>
	<path fill="#77D1F6" d="M655.3,151.6c0-0.4,0-0.9,0-1.3C655.2,150.7,655.3,151.1,655.3,151.6z"/>
	<path fill="#77D1F6" d="M655.1,148.9c0,0.3,0.1,0.6,0.1,0.9C655.2,149.5,655.2,149.2,655.1,148.9z"/>
	<path fill="#77D1F6" d="M370,150.7c-0.1-0.4-0.2-0.8-0.3-1.1C369.8,150,369.9,150.4,370,150.7z"/>
	<path fill="#77D1F6" d="M369.6,149.2c-0.1-0.4-0.2-0.8-0.3-1.2C369.4,148.4,369.5,148.8,369.6,149.2z"/>
	<path fill="#77D1F6" d="M652.7,140.3c0.2,0.3,0.3,0.7,0.5,1C653,141,652.8,140.7,652.7,140.3z"/>
	<path fill="#77D1F6" d="M370.5,152.3c-0.1-0.4-0.2-0.7-0.3-1.1C370.2,151.5,370.3,151.9,370.5,152.3z"/>
	<path fill="#77D1F6" d="M369.3,147.7c-0.1-0.4-0.2-0.9-0.2-1.3C369.1,146.9,369.2,147.3,369.3,147.7z"/>
	<path fill="#77D1F6" d="M371,153.7c-0.1-0.4-0.3-0.7-0.4-1.1C370.7,153,370.8,153.4,371,153.7z"/>
	<path fill="#77D1F6" d="M652.1,139.2c0.2,0.3,0.4,0.7,0.5,1.1C652.5,139.9,652.3,139.6,652.1,139.2z"/>
	<path fill="#77D1F6" d="M651.5,138.1c0.2,0.3,0.4,0.7,0.6,1.1C651.9,138.8,651.7,138.5,651.5,138.1z"/>
	<path fill="#77D1F6" d="M647.6,133.3c1.5,1.5,2.8,3.1,3.9,4.9C650.4,136.4,649.1,134.7,647.6,133.3z"/>
	<path fill="#77D1F6" d="M371.6,155.2c-0.2-0.4-0.3-0.7-0.4-1.1C371.3,154.5,371.4,154.8,371.6,155.2z"/>
	<path fill="#FFFFFF" d="M295.8,202.4c2,4.7,6.7,8,12.1,8c4.6,0,8.7-2.4,11.1-6c2.7,1.8,5.8,2.8,9.3,2.8c6.1,0,11.5-3.3,14.4-8.1
		c0.4,0.1,0.9,0.1,1.4,0.1c4.5,0,8.2-3.7,8.2-8.2c0-4.5-3.7-8.2-8.2-8.2c-0.2,0-0.5,0-0.7,0c-2.8-5.5-8.5-9.3-15.1-9.3
		c-0.7,0-1.3,0-1.9,0.1c-2.4-6.5-8.7-11.2-16-11.2c-6.8,0-12.7,4-15.4,9.7c-2.1-0.9-4.4-1.5-6.9-1.5c-5.4,0-10.3,2.6-13.4,6.6
		c-1-0.3-2.2-0.5-3.3-0.5c-6.1,0-11,4.9-11,11c0,6.1,4.9,11,11,11c1.3,0,2.5-0.2,3.6-0.6c3.1,3.8,7.8,6.2,13.1,6.2
		C290.8,204.3,293.4,203.6,295.8,202.4z"/>
	<path fill="#FFFFFF" d="M325,90.3c0.9,0,1.7-0.1,2.5-0.4c2.2,2.7,5.5,4.3,9.2,4.3c2,0,3.8-0.5,5.4-1.3c1.4,3.3,4.7,5.6,8.5,5.6
		c3.2,0,6.1-1.7,7.7-4.2c1.9,1.2,4.1,1.9,6.5,1.9c4.3,0,8-2.3,10.1-5.7c0.3,0.1,0.6,0.1,1,0.1c3.2,0,5.7-2.6,5.7-5.7
		s-2.6-5.7-5.7-5.7c-0.2,0-0.3,0-0.5,0c-1.9-3.9-5.9-6.5-10.6-6.5c-0.5,0-0.9,0-1.3,0.1c-1.7-4.6-6.1-7.8-11.2-7.8
		c-4.7,0-8.8,2.8-10.8,6.8c-1.5-0.7-3.1-1-4.8-1c-3.8,0-7.2,1.8-9.3,4.6c-0.7-0.2-1.5-0.4-2.3-0.4c-4.3,0-7.7,3.5-7.7,7.7
		C317.3,86.9,320.7,90.3,325,90.3z"/>
	<path fill="#FFFFFF" d="M762.9,95.9c-0.2,0-0.3,0-0.5,0c-1.9-3.9-5.9-6.5-10.6-6.5c-0.5,0-0.9,0-1.3,0.1c-1.7-4.6-6.1-7.8-11.2-7.8
		c-4.7,0-8.8,2.8-10.8,6.8c-1.5-0.7-3.1-1-4.8-1c-3.8,0-7.2,1.8-9.3,4.6c-0.7-0.2-1.5-0.4-2.3-0.4c-4.3,0-7.7,3.5-7.7,7.7
		c0,4.3,3.5,7.7,7.7,7.7c0.9,0,1.7-0.1,2.5-0.4c2.2,2.7,5.5,4.3,9.2,4.3c2,0,3.8-0.5,5.4-1.3c1.4,3.3,4.7,5.6,8.5,5.6
		c3.2,0,6.1-1.7,7.7-4.2c1.9,1.2,4.1,1.9,6.5,1.9c4.3,0,8-2.3,10.1-5.7c0.3,0.1,0.6,0.1,1,0.1c3.2,0,5.7-2.6,5.7-5.7
		C768.7,98.5,766.1,95.9,762.9,95.9z"/>
	<path fill="#FFFFFF" d="M682.6,199c0.7,0,1.4-0.1,2-0.3c1.8,2.2,4.5,3.6,7.5,3.6c1.6,0,3.1-0.4,4.5-1.1c1.2,2.7,3.8,4.6,6.9,4.6
		c2.7,0,5-1.4,6.3-3.4c1.5,1,3.3,1.6,5.3,1.6c3.5,0,6.6-1.9,8.3-4.7c0.3,0,0.5,0.1,0.8,0.1c2.6,0,4.7-2.1,4.7-4.7
		c0-2.6-2.1-4.7-4.7-4.7c-0.1,0-0.3,0-0.4,0c-1.6-3.2-4.9-5.4-8.7-5.4c-0.4,0-0.7,0-1.1,0.1c-1.4-3.7-5-6.4-9.2-6.4
		c-3.9,0-7.3,2.3-8.8,5.6c-1.2-0.5-2.5-0.8-3.9-0.8c-3.1,0-5.9,1.5-7.7,3.8c-0.6-0.2-1.2-0.3-1.9-0.3c-3.5,0-6.3,2.8-6.3,6.3
		C676.3,196.2,679.1,199,682.6,199z"/>
	<path fill="#50B3E5" d="M655.2,149.9c0-0.3,0-0.6-0.1-0.9c0-0.1,0-0.2,0-0.4c0-0.3-0.1-0.6-0.1-0.9c0-0.1,0-0.2-0.1-0.3
		c-0.1-0.3-0.1-0.6-0.2-0.9c0-0.1,0-0.2-0.1-0.3c-0.1-0.3-0.1-0.6-0.2-1c0-0.1,0-0.2-0.1-0.3c-0.1-0.3-0.2-0.7-0.3-1
		c0-0.1,0-0.1-0.1-0.2c-0.1-0.3-0.2-0.7-0.3-1c0,0,0-0.1-0.1-0.1c-0.1-0.3-0.3-0.7-0.4-1c0,0,0-0.1,0-0.1c-0.2-0.4-0.3-0.7-0.5-1
		c0,0,0,0,0-0.1c-0.2-0.4-0.4-0.7-0.5-1.1c0,0,0,0,0,0c-0.2-0.4-0.4-0.7-0.6-1.1c0,0,0,0,0,0c-1.1-1.8-2.4-3.4-3.9-4.9l0,0v0
		c0,0.4,0,0.8,0,1.2c0,14.2-11.5,25.6-25.6,25.6c-1.4,0-2.9-0.1-4.3-0.4c-9.2,15.2-25.9,25.3-45,25.3c-10.7,0-20.6-3.2-28.9-8.6
		c-7.3,11.3-20,18.7-34.5,18.7c-16.9,0-31.4-10.2-37.8-24.8c-7.3,3.8-15.5,5.9-24.3,5.9c-16.5,0-31.1-7.6-40.8-19.4
		c-3.5,1.2-7.2,1.9-11.1,1.9c-10.6,0-20.1-4.8-26.4-12.3l0,0v0c0.1,0.4,0.1,0.9,0.2,1.3c0,0.1,0,0.2,0,0.3c0.1,0.4,0.2,0.8,0.3,1.2
		c0,0.1,0.1,0.2,0.1,0.4c0.1,0.4,0.2,0.8,0.3,1.1c0,0.1,0.1,0.3,0.1,0.4c0.1,0.4,0.2,0.7,0.3,1.1c0,0.1,0.1,0.3,0.1,0.4
		c0.1,0.4,0.3,0.7,0.4,1.1c0,0.1,0.1,0.3,0.2,0.4c0.1,0.4,0.3,0.7,0.4,1.1c0.1,0.1,0.1,0.2,0.2,0.3c0.2,0.4,0.3,0.7,0.5,1.1
		c0,0.1,0.1,0.2,0.1,0.2c0.9,1.7,1.9,3.3,3,4.9c0,0,0.1,0.1,0.1,0.1c0.2,0.3,0.5,0.6,0.7,0.9c0.1,0.1,0.2,0.2,0.3,0.3
		c0.2,0.3,0.4,0.5,0.7,0.8c0.1,0.1,0.2,0.3,0.4,0.4c0.2,0.2,0.4,0.5,0.7,0.7c0.1,0.1,0.3,0.3,0.4,0.4c0.2,0.2,0.4,0.4,0.7,0.7
		c0.2,0.1,0.3,0.3,0.5,0.4c0.2,0.2,0.4,0.4,0.7,0.6c0.2,0.1,0.3,0.3,0.5,0.4c0.2,0.2,0.5,0.4,0.7,0.6c0.2,0.1,0.4,0.3,0.5,0.4
		c0.2,0.2,0.5,0.4,0.7,0.5c0.2,0.1,0.4,0.3,0.6,0.4c0.2,0.2,0.5,0.3,0.7,0.5c0.2,0.1,0.4,0.3,0.7,0.4c0.2,0.1,0.4,0.3,0.7,0.4
		c0.3,0.2,0.7,0.4,1.1,0.6c0.3,0.2,0.5,0.3,0.8,0.4c0.3,0.2,0.6,0.3,0.9,0.4c0.2,0.1,0.4,0.2,0.6,0.3c0.3,0.1,0.5,0.3,0.8,0.4
		c0.2,0.1,0.4,0.2,0.7,0.3c0.3,0.1,0.6,0.2,0.8,0.3c0.2,0.1,0.5,0.2,0.7,0.2c0.3,0.1,0.6,0.2,0.8,0.3c0.2,0.1,0.5,0.1,0.7,0.2
		c0.3,0.1,0.6,0.2,0.9,0.2c0.2,0.1,0.5,0.1,0.7,0.2c0.3,0.1,0.6,0.1,0.9,0.2c0.2,0.1,0.5,0.1,0.7,0.1c0.3,0.1,0.6,0.1,0.9,0.2
		c0.2,0,0.5,0.1,0.7,0.1c0.3,0,0.7,0.1,1,0.1c0.2,0,0.4,0.1,0.7,0.1c0.4,0,0.7,0.1,1.1,0.1c0.2,0,0.4,0,0.6,0c0.6,0,1.1,0,1.7,0
		c3.9,0,7.6-0.7,11.1-1.9c9.6,11.8,24.3,19.4,40.8,19.4c8.8,0,17-2.1,24.3-5.9c6.3,14.6,20.8,24.8,37.8,24.8
		c14.5,0,27.2-7.5,34.5-18.7c8.3,5.5,18.2,8.6,28.9,8.6c19.1,0,35.7-10.1,45-25.3c1.4,0.2,2.8,0.4,4.3,0.4
		c14.2,0,25.6-11.5,25.6-25.6c0-0.4,0-0.9,0-1.3C655.2,150.1,655.2,150,655.2,149.9z"/>
	<path fill="#FFFFFF" d="M418.5,119.5c0,0,7.8-23.1,41.4-26.1c0,0-28.5-3.9-43.5,20.1c0,0-32.7-10.5-42.9,22.8
		C373.6,136.3,390.3,104.5,418.5,119.5z"/>
	<path fill="#F37B20" d="M330.5,317.9h-31.7c-3.3,0-6,2.7-6,6v62.2c0,3.3,2.7,6,6,6h31.7c3.3,0,6-2.7,6-6V324
		C336.5,320.6,333.8,317.9,330.5,317.9z M314.6,389.8c-1.8,0-3.3-1.5-3.3-3.3s1.5-3.3,3.3-3.3c1.8,0,3.3,1.5,3.3,3.3
		S316.5,389.8,314.6,389.8z M333.4,381.4h-37.5v-52.7h37.5V381.4z"/>
	<path fill="#D1EDFB" d="M295.9,381.4h37.5v-52.7h-37.5V381.4z M297.9,330.7h12.9l-10.6,2.3l-2.3,22.7V330.7z"/>
	<circle fill="#FFFFFF" cx="314.6" cy="386.5" r="3.3"/>
	<path fill="#4874A4" d="M741,307.4h-53.2c-3.3,0-6,2.7-6,6v83.3c0,3.3,2.7,6,6,6H741c3.3,0,6-2.7,6-6v-83.3
		C747,310.1,744.3,307.4,741,307.4z M714.4,400.6c-1.7,0-3-1.4-3-3c0-1.7,1.4-3,3-3c1.7,0,3,1.4,3,3
		C717.4,399.3,716.1,400.6,714.4,400.6z M744.6,393.1h-60.5V317h60.5V393.1z"/>
	<path fill="#D1EDFB" d="M684.1,393.1h60.5V317h-60.5V393.1z M685.7,318.9h18.6l-16.4,2.3l-2.3,23.2V318.9z"/>
	<circle fill="#FFFFFF" cx="714.4" cy="397.6" r="3"/>
	<path fill="#008981" d="M477.3,313.5h-72.9v48.9l-7.3,30h87.6l-7.3-30V313.5z M429.9,391l1.8-6.5h18.2l1.8,6.5H429.9z M477.7,382.4
		H404l6.2-17.3h61.4L477.7,382.4z M407.4,316.7h66.9v42.5h-66.9V316.7z"/>
	<polygon fill="#00423D" points="410.1,365.1 404,382.4 477.7,382.4 471.5,365.1 	"/>
	<polygon fill="#00423D" points="431.7,384.5 429.9,391 451.7,391 449.9,384.5 	"/>
	<path fill="#D1EDFB" d="M474.3,316.7h-66.9v42.5h66.9V316.7z M411,320.6l-2,17.9v-19.7h21.9L411,320.6z"/>
	<rect x="397" y="392.4" fill="#00423D" width="87.6" height="4.2"/>
	<path fill="#EC297B" d="M526.1,383.3H575v5.9h-19v7.2H600v-7.2h-19v-5.9h48.9v-69.5H526.1V383.3z M530.4,318.2h95.3v60.5h-95.3
		V318.2z"/>
	<path fill="#D1EDFB" d="M625.6,318.2h-95.3v60.5h95.3V318.2z M535.5,321.9l-3,22.4v-24.2h25.7L535.5,321.9z"/>
	<polygon fill="#FFFFFF" points="310.7,330.7 297.9,330.7 297.9,355.7 300.2,333 	"/>
	<polygon fill="#FFFFFF" points="409,338.5 411,320.6 430.9,318.9 409,318.9 	"/>
	<polygon fill="#FFFFFF" points="532.5,344.3 535.5,321.9 558.2,320.1 532.5,320.1 	"/>
	<polygon fill="#FFFFFF" points="704.4,318.9 685.7,318.9 685.7,344.3 688,321.1 	"/>
	<path fill="#FFFFFF" d="M369.2,250.7l1.2,2.2c1.2-0.6,2.4-1.3,3.6-1.9l-1.2-2.2C371.6,249.4,370.4,250,369.2,250.7z"/>
	<path fill="#FFFFFF" d="M412.5,214.4c0.8,0.3,1.5,0.9,2,1.5c0.5-0.8,1.1-1.6,1.6-2.5l-2.2-1.3C413.5,212.9,413.1,213.7,412.5,214.4
		z"/>
	<path fill="#FFFFFF" d="M423,198.5l-2.4-0.7c-0.4,1.2-0.8,2.5-1.3,3.7l2.4,0.9C422.1,201.1,422.6,199.8,423,198.5z"/>
	<path fill="#FFFFFF" d="M318.8,275.9l1.9,1.6c0.8-1,1.7-1.9,2.7-2.8l-1.7-1.9C320.7,273.9,319.7,274.9,318.8,275.9z"/>
	<path fill="#FFFFFF" d="M376.3,246.8l1.3,2.2c1.2-0.7,2.4-1.4,3.5-2.1l-1.3-2.1C378.6,245.5,377.4,246.1,376.3,246.8z"/>
	<path fill="#FFFFFF" d="M394.3,237.6l-1.6-2c-1,0.8-2.1,1.6-3.2,2.4l1.5,2C392.2,239.2,393.3,238.4,394.3,237.6z"/>
	<path fill="#FFFFFF" d="M416,208.7l2.2,1.2c0.6-1.2,1.3-2.5,1.8-3.7l-2.3-1C417.2,206.3,416.6,207.5,416,208.7z"/>
	<path fill="#FFFFFF" d="M333.1,268.2c1.1-0.6,2.3-1.1,3.6-1.6l-1-2.3c-1.3,0.5-2.5,1.1-3.7,1.7L333.1,268.2z"/>
	<path fill="#FFFFFF" d="M400.5,232.3l-1.7-1.9c-1,0.9-2,1.8-3,2.7l1.6,1.9C398.5,234.1,399.5,233.2,400.5,232.3z"/>
	<path fill="#FFFFFF" d="M362,254.2l1,2.3c1.2-0.6,2.5-1.1,3.7-1.7l-1.1-2.3C364.5,253,363.2,253.6,362,254.2z"/>
	<path fill="#FFFFFF" d="M326.4,272.3c1-0.8,2.1-1.5,3.2-2.2l-1.3-2.1c-1.2,0.7-2.4,1.5-3.4,2.3L326.4,272.3z"/>
	<path fill="#FFFFFF" d="M314.9,287.6l-2.4-0.8c-0.1,0.3-0.2,0.6-0.3,0.9c0.9,0,1.7,0.2,2.5,0.6C314.8,288,314.8,287.8,314.9,287.6z
		"/>
	<path fill="#FFFFFF" d="M403.5,229.4c1-1,1.9-2,2.8-2.9l-1.9-1.7c-0.9,1-1.8,1.9-2.8,2.9L403.5,229.4z"/>
	<path fill="#FFFFFF" d="M316.3,279.3c-0.8,1.2-1.5,2.4-2.1,3.6l2.3,1.1c0.6-1.2,1.2-2.3,1.9-3.3L316.3,279.3z"/>
	<path fill="#FFFFFF" d="M341.1,262.2c-0.5,0.2-1.1,0.3-1.6,0.5l0.8,2.4c0.5-0.2,1-0.3,1.5-0.5c0.8-0.2,1.5-0.5,2.3-0.8l-0.8-2.4
		C342.6,261.7,341.9,262,341.1,262.2z"/>
	<path fill="#FFFFFF" d="M347.2,260.2l0.8,2.4c0.8-0.3,1.5-0.5,2.3-0.8c-0.4-0.7-0.7-1.5-0.8-2.4
		C348.7,259.6,347.9,259.9,347.2,260.2z"/>
	<path fill="#FFFFFF" d="M311,307.2l2.5-0.4c-0.2-1.3-0.4-2.6-0.5-3.9l-2.5,0.2C310.6,304.5,310.8,305.9,311,307.2z"/>
	<path fill="#FFFFFF" d="M383.1,242.6l1.4,2.1c1.1-0.7,2.3-1.5,3.4-2.3l-1.4-2.1C385.3,241.1,384.2,241.9,383.1,242.6z"/>
	<path fill="#FFFFFF" d="M474.2,204.1l-2.5-0.3c-0.1,1.3-0.3,2.6-0.5,4l2.5,0.3C473.9,206.8,474.1,205.5,474.2,204.1z"/>
	<path fill="#FFFFFF" d="M453.7,260.6l2.2,1.3c0.7-1.1,1.4-2.3,2-3.5l-2.2-1.2C455,258.4,454.4,259.5,453.7,260.6z"/>
	<path fill="#FFFFFF" d="M457.5,253.6l2.3,1.1c0.6-1.2,1.2-2.4,1.8-3.7l-2.3-1C458.7,251.3,458.1,252.5,457.5,253.6z"/>
	<path fill="#FFFFFF" d="M466.1,239.8c0.4-1.3,0.9-2.6,1.3-3.9l-2.4-0.8c-0.4,1.3-0.8,2.6-1.3,3.8L466.1,239.8z"/>
	<path fill="#FFFFFF" d="M460.8,246.4l2.3,1c0.5-1.2,1-2.5,1.5-3.8l-2.4-0.9C461.8,243.9,461.3,245.2,460.8,246.4z"/>
	<path fill="#FFFFFF" d="M435.1,299.9c0.3,1.4,0.8,2.7,1.3,4l2.3-1c-0.5-1.2-0.9-2.4-1.2-3.6L435.1,299.9z"/>
	<path fill="#FFFFFF" d="M441.1,281.1c0.7-1,1.5-2.1,2.3-3.1l-1.9-1.6c-0.9,1.1-1.7,2.2-2.5,3.4L441.1,281.1z"/>
	<path fill="#FFFFFF" d="M468.6,222c0.9,0,1.7,0.2,2.4,0.6c0.2-0.8,0.4-1.6,0.5-2.4l-2.5-0.5C469,220.4,468.8,221.2,468.6,222z"/>
	<path fill="#FFFFFF" d="M435.4,287.3l2.4,0.7c0.4-1.2,0.8-2.4,1.4-3.6l-2.3-1.1C436.3,284.7,435.8,286,435.4,287.3z"/>
	<path fill="#FFFFFF" d="M469.9,215.7l2.5,0.5c0.3-1.3,0.5-2.7,0.7-4l-2.5-0.4C470.4,213.1,470.2,214.4,469.9,215.7z"/>
	<path fill="#FFFFFF" d="M451.6,264c-0.2,0.4-0.5,0.7-0.7,1.1c0.7,0.7,1.1,1.5,1.4,2.4c0.5-0.7,1-1.4,1.4-2.1L451.6,264z"/>
	<path fill="#FFFFFF" d="M434.4,294.2c0,0.5,0,1,0,1.5l2.5-0.2c0-0.5,0-0.9,0-1.4c0-0.8,0-1.6,0.1-2.4l-2.5-0.3
		C434.5,292.4,434.4,293.3,434.4,294.2z"/>
	<path fill="#FFFFFF" d="M557,223.7l-2.4,0.7c0.1,0.4,0.2,0.7,0.3,1.1c0.7-0.5,1.5-0.8,2.3-1C557.1,224.2,557,224,557,223.7z"/>
	<path fill="#FFFFFF" d="M560.2,239.7c0.5,1.2,1.1,2.5,1.7,3.7l2.3-1.1c-0.6-1.2-1.2-2.4-1.7-3.6L560.2,239.7z"/>
	<path fill="#FFFFFF" d="M563.7,247c0.6,1.2,1.3,2.4,1.9,3.6l2.2-1.2c-0.6-1.2-1.3-2.4-1.9-3.5L563.7,247z"/>
	<path fill="#FFFFFF" d="M585.2,289.8l-2.5-0.2c-0.1,1.3-0.2,2.6-0.4,3.9l2.5,0.3C585,292.5,585.2,291.2,585.2,289.8z"/>
	<path fill="#FFFFFF" d="M551.9,208.2c0.1,1.3,0.2,2.7,0.3,4.1l2.5-0.3c-0.1-1.3-0.2-2.7-0.3-3.9L551.9,208.2z"/>
	<path fill="#FFFFFF" d="M552.7,216.4c0.2,1.3,0.5,2.7,0.8,4l2.5-0.6c-0.3-1.3-0.6-2.6-0.8-3.9L552.7,216.4z"/>
	<path fill="#FFFFFF" d="M576.2,263.1c-0.7-1.1-1.5-2.3-2.2-3.4l-2.1,1.4c0.7,1.1,1.5,2.3,2.2,3.4L576.2,263.1z"/>
	<path fill="#FFFFFF" d="M580.7,301.3l2.4,0.7c0.4-1.3,0.7-2.7,1-4l-2.5-0.5C581.4,298.7,581.1,300,580.7,301.3z"/>
	<path fill="#FFFFFF" d="M567.6,254.1c0.7,1.1,1.4,2.3,2.1,3.5l2.2-1.3c-0.7-1.2-1.4-2.3-2-3.4L567.6,254.1z"/>
	<path fill="#FFFFFF" d="M578.4,266.4l-2.1,1.4c0.7,1,1.4,2,2,2.9c0.1,0.1,0.2,0.3,0.3,0.4l2.1-1.4c-0.1-0.2-0.2-0.3-0.3-0.5
		C579.8,268.3,579.1,267.4,578.4,266.4z"/>
	<path fill="#FFFFFF" d="M582.8,273.4l-2.3,1c0.4,0.9,0.8,1.9,1.1,3c0.7-0.4,1.6-0.6,2.5-0.6C583.6,275.7,583.2,274.5,582.8,273.4z"
		/>
	<path fill="#FFFFFF" d="M681.9,250.7l1.4-2.1c-0.5-0.4-1.1-0.7-1.6-1c-0.1,0.9-0.4,1.7-0.8,2.4
		C681.2,250.3,681.6,250.5,681.9,250.7z"/>
	<path fill="#FFFFFF" d="M655.5,244.2c1.3,0.2,2.7,0.3,4.1,0.5l0.2-2.5c-1.3-0.1-2.7-0.3-3.9-0.5L655.5,244.2z"/>
	<path fill="#FFFFFF" d="M688.1,255.6l1.7-1.8c-1-1-2.1-1.9-3.1-2.7l-1.6,2C686.1,253.8,687.1,254.7,688.1,255.6z"/>
	<path fill="#FFFFFF" d="M639.7,239.8c1.2,0.6,2.5,1.1,3.8,1.5l0.8-2.4c-1.2-0.4-2.5-0.9-3.6-1.5L639.7,239.8z"/>
	<path fill="#FFFFFF" d="M708.3,280.6c-0.6-1.2-1.2-2.5-1.8-3.6l-2.2,1.2c0.6,1.2,1.2,2.4,1.8,3.6L708.3,280.6z"/>
	<path fill="#FFFFFF" d="M700.3,271.2c0.7,1.1,1.4,2.3,2,3.4l2.2-1.2c-0.7-1.2-1.4-2.4-2.1-3.5L700.3,271.2z"/>
	<path fill="#FFFFFF" d="M693.4,261.4l1.9-1.6c-0.9-1.1-1.8-2.1-2.7-3.1l-1.8,1.7C691.7,259.4,692.6,260.4,693.4,261.4z"/>
	<path fill="#FFFFFF" d="M619,215.9l-2.3,1.1c0.5,1,1,2,1.6,2.9c0.6-0.5,1.4-0.9,2.2-1.2C620,217.8,619.4,216.9,619,215.9z"/>
	<path fill="#FFFFFF" d="M714.6,295.6c-0.5-1.3-0.9-2.6-1.4-3.8l-2.3,0.9c0.5,1.2,1,2.5,1.4,3.8L714.6,295.6z"/>
	<path fill="#FFFFFF" d="M695.9,264.6c0.8,1,1.5,2.1,2.3,3.3l2.1-1.4c-0.8-1.1-1.6-2.3-2.4-3.3L695.9,264.6z"/>
	<path fill="#FFFFFF" d="M647.5,242.6c1.3,0.4,2.6,0.7,4,1l0.5-2.5c-1.3-0.3-2.6-0.6-3.8-0.9L647.5,242.6z"/>
	<path fill="#FFFFFF" d="M663.8,242.5l-0.1,2.5c0.4,0,0.9,0,1.3,0c0.9,0,1.7,0.1,2.6,0.2l0.3-2.5c-0.9-0.1-1.9-0.2-2.8-0.2
		C664.7,242.5,664.2,242.5,663.8,242.5z"/>
	<path fill="#FFFFFF" d="M613.5,209.5c0.5,1.3,1,2.6,1.5,3.8l2.3-1c-0.5-1.2-1-2.4-1.4-3.7L613.5,209.5z"/>
	<path fill="#FFFFFF" d="M611.1,201.6c0.3,1.3,0.7,2.7,1.1,3.9l2.4-0.7c-0.4-1.2-0.7-2.5-1.1-3.8L611.1,201.6z"/>
	<path fill="#FFFFFF" d="M637.3,235.8c-1.1-0.6-2.3-1.3-3.3-2.1l-1.4,2.1c1.1,0.8,2.3,1.5,3.5,2.2L637.3,235.8z"/>
	<path fill="#FFFFFF" d="M629.2,233.3l1.6-1.9c-1-0.8-2-1.7-2.9-2.6l-1.8,1.8C627.1,231.5,628.2,232.4,629.2,233.3z"/>
	<path fill="#F37B20" d="M318,293.5c0-2.3-1.3-4.3-3.3-5.3c-0.7-0.4-1.6-0.6-2.5-0.6c0,0-0.1,0-0.1,0c-3.2,0-5.9,2.6-5.9,5.9
		c0,3.2,2.6,5.9,5.9,5.9C315.4,299.4,318,296.7,318,293.5z"/>
	<path fill="#F37B20" d="M355.3,252.9c-3.2,0-5.9,2.6-5.9,5.9c0,0.2,0,0.4,0,0.6c0.1,0.9,0.4,1.7,0.8,2.4c1,1.7,2.9,2.8,5,2.8
		c3.2,0,5.9-2.6,5.9-5.9C361.1,255.5,358.5,252.9,355.3,252.9z"/>
	<path fill="#F37B20" d="M412.5,214.4c-0.7-0.3-1.5-0.5-2.3-0.5c-3.2,0-5.9,2.6-5.9,5.9c0,3.2,2.6,5.9,5.9,5.9
		c3.2,0,5.9-2.6,5.9-5.9c0-1.5-0.6-2.9-1.5-3.9C414,215.3,413.3,214.8,412.5,214.4z"/>
	<path fill="#008981" d="M468.4,221.9c-3.2,0-5.9,2.6-5.9,5.9c0,3.2,2.6,5.9,5.9,5.9c3.2,0,5.9-2.6,5.9-5.9c0-2.3-1.3-4.3-3.2-5.2
		c-0.7-0.4-1.6-0.6-2.4-0.6C468.6,221.9,468.5,221.9,468.4,221.9z"/>
	<path fill="#008981" d="M446.7,263.4c-3.2,0-5.9,2.6-5.9,5.9c0,3.2,2.6,5.9,5.9,5.9c3.2,0,5.9-2.6,5.9-5.9c0-0.6-0.1-1.2-0.3-1.8
		c-0.3-0.9-0.8-1.7-1.4-2.4C449.8,264,448.3,263.4,446.7,263.4z"/>
	<path fill="#EC297B" d="M558.2,224.4c-0.3,0-0.7,0-1,0.1c-0.9,0.1-1.7,0.5-2.3,1c-1.5,1.1-2.5,2.8-2.5,4.8c0,3.2,2.6,5.9,5.9,5.9
		s5.9-2.6,5.9-5.9C564.1,227,561.4,224.4,558.2,224.4z"/>
	<path fill="#EC297B" d="M589.9,282.7c0-3.2-2.6-5.9-5.9-5.9c0,0-0.1,0-0.1,0c-0.9,0-1.7,0.2-2.5,0.6c-2,0.9-3.3,2.9-3.3,5.3
		c0,3.2,2.6,5.9,5.9,5.9C587.3,288.5,589.9,285.9,589.9,282.7z"/>
	<path fill="#4874A4" d="M622,218.6c-0.5,0-1.1,0.1-1.6,0.2c-0.8,0.2-1.6,0.6-2.2,1.2c-1.3,1.1-2.1,2.7-2.1,4.5
		c0,3.2,2.6,5.9,5.9,5.9c3.2,0,5.9-2.6,5.9-5.9C627.9,221.2,625.3,218.6,622,218.6z"/>
	<path fill="#4874A4" d="M680.9,250c0.4-0.7,0.7-1.6,0.8-2.4c0-0.2,0-0.4,0-0.6c0-3.2-2.6-5.9-5.9-5.9c-3.2,0-5.9,2.6-5.9,5.9
		c0,3.2,2.6,5.9,5.9,5.9C678,252.9,679.8,251.7,680.9,250z"/>
	<circle fill="#4874A4" cx="708.5" cy="287.2" r="5.9"/>
</g>
</svg>
